<svg width="68" height="72" viewBox="0 0 68 72" fill="none" xmlns="http://www.w3.org/2000/svg">
<g clip-path="url(#clip0_14_1449)">
<g clip-path="url(#clip1_14_1449)">
<path d="M62.3333 6.8H56.6667V4.53333C56.6667 2.03008 54.6366 0 52.1333 0C49.6301 0 47.6 2.03008 47.6 4.53333V6.8H38.5333V4.53333C38.5333 2.03008 36.5032 0 34 0C31.4967 0 29.4667 2.03008 29.4667 4.53333V6.8H20.4V4.53333C20.4 2.03008 18.3699 0 15.8667 0C13.3634 0 11.3333 2.03008 11.3333 4.53333V6.8H5.66667C2.53725 6.8 0 9.33725 0 12.4667V57.8C0 60.9294 2.53725 63.4667 5.66667 63.4667H37.4C38.0262 63.4667 38.5333 62.9595 38.5333 62.3333C38.5333 61.7072 38.0262 61.2 37.4 61.2H5.66667C3.791 61.1943 2.27233 59.6757 2.26667 57.8V22.6667H65.7333V41.9333C65.7333 42.5595 66.2405 43.0667 66.8667 43.0667C67.4928 43.0667 68 42.5595 68 41.9333V12.4667C68 9.33725 65.4627 6.8 62.3333 6.8ZM49.8667 4.53333C49.8667 3.281 50.881 2.26667 52.1333 2.26667C53.3857 2.26667 54.4 3.281 54.4 4.53333V11.3333C54.4 12.5857 53.3857 13.6 52.1333 13.6C50.881 13.6 49.8667 12.5857 49.8667 11.3333V4.53333ZM31.7333 4.53333C31.7333 3.281 32.7477 2.26667 34 2.26667C35.2523 2.26667 36.2667 3.281 36.2667 4.53333V11.3333C36.2667 12.5857 35.2523 13.6 34 13.6C32.7477 13.6 31.7333 12.5857 31.7333 11.3333V4.53333ZM13.6 4.53333C13.6 3.281 14.6143 2.26667 15.8667 2.26667C17.119 2.26667 18.1333 3.281 18.1333 4.53333V11.3333C18.1333 12.5857 17.119 13.6 15.8667 13.6C14.6143 13.6 13.6 12.5857 13.6 11.3333V4.53333ZM65.7333 20.4H2.26667V12.4667C2.27233 10.591 3.791 9.07233 5.66667 9.06667H11.3333V11.3333C11.3333 13.8366 13.3634 15.8667 15.8667 15.8667C18.3699 15.8667 20.4 13.8366 20.4 11.3333V9.06667H29.4667V11.3333C29.4667 13.8366 31.4967 15.8667 34 15.8667C36.5032 15.8667 38.5333 13.8366 38.5333 11.3333V9.06667H47.6V11.3333C47.6 13.8366 49.6301 15.8667 52.1333 15.8667C54.6366 15.8667 56.6667 13.8366 56.6667 11.3333V9.06667H62.3333C64.209 9.07233 65.7277 10.591 65.7333 12.4667V20.4Z" fill="#E52C77"/>
<path d="M31.7334 30.6C31.7334 29.3476 30.719 28.3333 29.4667 28.3333H24.9334C23.681 28.3333 22.6667 29.3476 22.6667 30.6V34C22.6667 35.2523 23.681 36.2666 24.9334 36.2666H29.4667C30.719 36.2666 31.7334 35.2523 31.7334 34V30.6ZM24.9334 34V30.6H29.4667V34H24.9334Z" fill="#E52C77"/>
<path d="M18.1333 30.6C18.1333 29.3476 17.119 28.3333 15.8666 28.3333H11.3333C10.081 28.3333 9.06665 29.3476 9.06665 30.6V34C9.06665 35.2523 10.081 36.2666 11.3333 36.2666H15.8666C17.119 36.2666 18.1333 35.2523 18.1333 34V30.6ZM11.3333 34V30.6H15.8666V34H11.3333Z" fill="#E52C77"/>
<path d="M56.6666 36.2666C57.919 36.2666 58.9333 35.2523 58.9333 34V30.6C58.9333 29.3476 57.919 28.3333 56.6666 28.3333H52.1333C50.881 28.3333 49.8666 29.3476 49.8666 30.6V34C49.8666 35.2523 50.881 36.2666 52.1333 36.2666H56.6666ZM52.1333 30.6H56.6666V34H52.1333V30.6Z" fill="#E52C77"/>
<path d="M31.7334 40.8C31.7334 39.5477 30.719 38.5333 29.4667 38.5333H24.9334C23.681 38.5333 22.6667 39.5477 22.6667 40.8V44.2C22.6667 45.4523 23.681 46.4667 24.9334 46.4667H29.4667C30.719 46.4667 31.7334 45.4523 31.7334 44.2V40.8ZM24.9334 44.2V40.8H29.4667V44.2H24.9334Z" fill="#E52C77"/>
<path d="M18.1333 40.8C18.1333 39.5477 17.119 38.5333 15.8666 38.5333H11.3333C10.081 38.5333 9.06665 39.5477 9.06665 40.8V44.2C9.06665 45.4523 10.081 46.4667 11.3333 46.4667H15.8666C17.119 46.4667 18.1333 45.4523 18.1333 44.2V40.8ZM11.3333 44.2V40.8H15.8666V44.2H11.3333Z" fill="#E52C77"/>
<path d="M29.4667 48.7333H24.9334C23.681 48.7333 22.6667 49.7477 22.6667 51V54.4C22.6667 55.6523 23.681 56.6667 24.9334 56.6667H29.4667C30.719 56.6667 31.7334 55.6523 31.7334 54.4V51C31.7334 49.7477 30.719 48.7333 29.4667 48.7333ZM24.9334 54.4V51H29.4667V54.4H24.9334Z" fill="#E52C77"/>
<path d="M38.5333 36.2666H43.0667C44.319 36.2666 45.3333 35.2523 45.3333 34V30.6C45.3333 29.3476 44.319 28.3333 43.0667 28.3333H38.5333C37.281 28.3333 36.2667 29.3476 36.2667 30.6V34C36.2667 35.2523 37.281 36.2666 38.5333 36.2666ZM38.5333 30.6H43.0667V34H38.5333V30.6Z" fill="#E52C77"/>
<path d="M36.2667 44.2C36.2667 45.4523 37.281 46.4667 38.5333 46.4667C39.1595 46.4667 39.6667 45.9595 39.6667 45.3333C39.6667 44.7072 39.1595 44.2 38.5333 44.2V40.8H43.0667C43.6928 40.8 44.2 40.2928 44.2 39.6667C44.2 39.0405 43.6928 38.5333 43.0667 38.5333H38.5333C37.281 38.5333 36.2667 39.5477 36.2667 40.8V44.2Z" fill="#E52C77"/>
<path d="M15.8666 48.7333H11.3333C10.081 48.7333 9.06665 49.7477 9.06665 51V54.4C9.06665 55.6523 10.081 56.6667 11.3333 56.6667H15.8666C17.119 56.6667 18.1333 55.6523 18.1333 54.4V51C18.1333 49.7477 17.119 48.7333 15.8666 48.7333ZM11.3333 54.4V51H15.8666V54.4H11.3333Z" fill="#E52C77"/>
<path d="M53.2667 38.5333C45.1293 38.5333 38.5333 45.1293 38.5333 53.2667C38.5333 61.404 45.1293 68 53.2667 68C61.404 68 68 61.404 68 53.2667C67.9901 45.1336 61.3997 38.5432 53.2667 38.5333ZM53.2667 65.7333C46.3817 65.7333 40.8 60.1517 40.8 53.2667C40.8 46.3817 46.3817 40.8 53.2667 40.8C60.1517 40.8 65.7333 46.3817 65.7333 53.2667C65.7248 60.1488 60.1488 65.7248 53.2667 65.7333Z" fill="#E52C77"/>
<path d="M59.8145 48.5152L51 57.3297L46.9937 53.322C46.5432 52.887 45.8263 52.8998 45.3914 53.3503C44.9678 53.7894 44.9678 54.4864 45.3914 54.9256L50.1996 59.7338C50.6416 60.1758 51.3598 60.1758 51.8018 59.7338L61.4182 50.1174C61.8531 49.6669 61.8403 48.9501 61.3898 48.5152C60.9507 48.0916 60.2537 48.0916 59.8145 48.5152Z" fill="#E52C77"/>
</g>
</g>
<defs>
<clipPath id="clip0_14_1449">
<rect width="67.9437" height="72" fill="white"/>
</clipPath>
<clipPath id="clip1_14_1449">
<rect width="68" height="68" fill="white"/>
</clipPath>
</defs>
</svg>
