<svg width="68" height="72" viewBox="0 0 68 72" fill="none" xmlns="http://www.w3.org/2000/svg">
<g clip-path="url(#clip0_14_1447)">
<path d="M3.83521 24.1779V11.1422C3.83521 7.10644 7.0893 3.83105 11.0988 3.83105" stroke="#E52C77" stroke-width="2" stroke-linecap="round"/>
<path d="M38.33 24.1779V11.1422C38.33 7.10644 35.0759 3.83105 31.0664 3.83105" stroke="#E52C77" stroke-width="2" stroke-linecap="round"/>
<path d="M20.4034 52.1795V56.6978C20.4034 64.5427 26.7228 70.9033 34.5166 70.9033C42.3104 70.9033 48.6298 64.55 48.637 56.7051V30.6556C48.637 27.0219 51.5643 24.0756 55.1743 24.0756C58.7843 24.0756 61.7115 27.0219 61.7115 30.6556V55.0747" stroke="#E52C77" stroke-width="2" stroke-linecap="round"/>
<path d="M61.6824 66.1365C64.5387 66.1365 66.8541 63.8059 66.8541 60.931C66.8541 58.0561 64.5387 55.7255 61.6824 55.7255C58.8262 55.7255 56.5107 58.0561 56.5107 60.931C56.5107 63.8059 58.8262 66.1365 61.6824 66.1365Z" stroke="#E52C77" stroke-width="2" stroke-linecap="round"/>
<path d="M61.6824 62.2543C62.4085 62.2543 62.9972 61.6618 62.9972 60.931C62.9972 60.2001 62.4085 59.6077 61.6824 59.6077C60.9564 59.6077 60.3677 60.2001 60.3677 60.931C60.3677 61.6618 60.9564 62.2543 61.6824 62.2543Z" stroke="#E52C77" stroke-width="2" stroke-linecap="round"/>
<path d="M1.08954 25.2746L5.5058 25.1649C5.49128 25.7644 5.45496 33.3241 11.4547 37.4622C14.0115 39.1365 17.0477 39.9115 20.0911 39.6556C20.8175 39.7726 27.3039 40.7376 32.2721 35.8684C35.0832 33.039 36.6158 29.1641 36.5141 25.1649L40.8722 25.2746V27.9066C40.8722 37.0236 33.5288 44.4078 24.4783 44.4078C24.3476 44.4078 24.2168 44.4078 24.0861 44.4078V50.9878H17.4762V44.5029C8.42577 44.5029 1.08954 37.1186 1.08954 28.0089V25.2819V25.2746Z" stroke="#E52C77" stroke-width="2" stroke-linecap="round"/>
<path d="M14.7451 6.5654C16.2454 6.5654 17.4617 5.34119 17.4617 3.83104C17.4617 2.32089 16.2454 1.09668 14.7451 1.09668C13.2448 1.09668 12.0285 2.32089 12.0285 3.83104C12.0285 5.34119 13.2448 6.5654 14.7451 6.5654Z" stroke="#E52C77" stroke-width="2" stroke-linecap="round"/>
<path d="M27.9648 6.5654C29.4651 6.5654 30.6814 5.34119 30.6814 3.83104C30.6814 2.32089 29.4651 1.09668 27.9648 1.09668C26.4645 1.09668 25.2482 2.32089 25.2482 3.83104C25.2482 5.34119 26.4645 6.5654 27.9648 6.5654Z" stroke="#E52C77" stroke-width="2" stroke-linecap="round"/>
</g>
<defs>
<clipPath id="clip0_14_1447">
<rect width="67.9437" height="72" fill="white"/>
</clipPath>
</defs>
</svg>
