<svg width="33" height="33" viewBox="0 0 33 33" fill="none" xmlns="http://www.w3.org/2000/svg">
<path d="M28.655 6.33876C27.9528 5.63614 27.1189 5.07877 26.2012 4.6985C25.2834 4.31822 24.2997 4.1225 23.3063 4.1225C22.3129 4.1225 21.3292 4.31822 20.4114 4.6985C19.4937 5.07877 18.6598 5.63614 17.9575 6.33876L16.5 7.79626L15.0425 6.33876C13.624 4.92018 11.7 4.12323 9.69379 4.12323C7.68762 4.12323 5.76362 4.92018 4.34504 6.33876C2.92646 7.75733 2.12952 9.68134 2.12952 11.6875C2.12952 13.6937 2.92646 15.6177 4.34504 17.0363L5.80254 18.4938L16.5 29.1913L27.1975 18.4938L28.655 17.0363C29.3577 16.334 29.915 15.5001 30.2953 14.5824C30.6756 13.6646 30.8713 12.6809 30.8713 11.6875C30.8713 10.6941 30.6756 9.7104 30.2953 8.79264C29.915 7.87489 29.3577 7.04105 28.655 6.33876Z" stroke="#22275E" stroke-width="2" stroke-linecap="round" stroke-linejoin="round"/>
</svg>
