<svg width="238" height="132" viewBox="0 0 238 132" fill="none" xmlns="http://www.w3.org/2000/svg">
<path d="M234.494 128V118.774H235.544V128H234.494ZM232.842 121.7V120.692H237.392V121.7H232.842Z" fill="#12324F"/>
<path d="M225.419 128V120.692H226.455L226.497 122.218L226.329 122.288C226.423 121.971 226.605 121.681 226.875 121.42C227.146 121.159 227.468 120.949 227.841 120.79C228.224 120.622 228.616 120.538 229.017 120.538C229.559 120.538 230.011 120.645 230.375 120.86C230.739 121.075 231.015 121.406 231.201 121.854C231.388 122.302 231.481 122.871 231.481 123.562V128H230.417V123.618C230.417 123.133 230.352 122.736 230.221 122.428C230.1 122.111 229.909 121.877 229.647 121.728C229.386 121.579 229.064 121.509 228.681 121.518C228.364 121.518 228.07 121.574 227.799 121.686C227.529 121.789 227.295 121.933 227.099 122.12C226.903 122.307 226.749 122.521 226.637 122.764C226.525 123.007 226.469 123.268 226.469 123.548V128H225.951C225.886 128 225.811 128 225.727 128C225.643 128 225.541 128 225.419 128Z" fill="#12324F"/>
<path d="M219.594 128.14C218.959 128.14 218.385 127.977 217.872 127.65C217.358 127.314 216.952 126.861 216.654 126.292C216.355 125.713 216.206 125.06 216.206 124.332C216.206 123.595 216.36 122.941 216.668 122.372C216.976 121.803 217.386 121.355 217.9 121.028C218.422 120.701 219.006 120.538 219.65 120.538C220.032 120.538 220.387 120.594 220.714 120.706C221.04 120.818 221.33 120.977 221.582 121.182C221.843 121.378 222.058 121.611 222.226 121.882C222.403 122.143 222.524 122.428 222.59 122.736L222.282 122.582L222.324 120.692H223.374V128H222.31V126.208L222.59 126.026C222.524 126.306 222.398 126.577 222.212 126.838C222.025 127.09 221.796 127.314 221.526 127.51C221.264 127.706 220.966 127.86 220.63 127.972C220.303 128.084 219.958 128.14 219.594 128.14ZM219.832 127.132C220.317 127.132 220.751 127.015 221.134 126.782C221.516 126.539 221.815 126.208 222.03 125.788C222.254 125.359 222.366 124.873 222.366 124.332C222.366 123.791 222.254 123.31 222.03 122.89C221.815 122.47 221.516 122.139 221.134 121.896C220.751 121.653 220.317 121.532 219.832 121.532C219.337 121.532 218.898 121.653 218.516 121.896C218.142 122.139 217.844 122.47 217.62 122.89C217.405 123.31 217.298 123.791 217.298 124.332C217.298 124.864 217.405 125.345 217.62 125.774C217.834 126.194 218.133 126.525 218.516 126.768C218.898 127.011 219.337 127.132 219.832 127.132Z" fill="#12324F"/>
<path d="M212.619 128V118.774H213.669V128H212.619ZM210.967 121.7V120.692H215.517V121.7H210.967Z" fill="#12324F"/>
<path d="M207.306 128.14C206.68 128.14 206.12 128.023 205.626 127.79C205.131 127.557 204.739 127.249 204.45 126.866L205.192 126.222C205.462 126.549 205.78 126.796 206.144 126.964C206.517 127.132 206.932 127.216 207.39 127.216C207.623 127.216 207.833 127.193 208.02 127.146C208.206 127.09 208.37 127.011 208.51 126.908C208.65 126.805 208.757 126.684 208.832 126.544C208.906 126.404 208.944 126.25 208.944 126.082C208.944 125.774 208.808 125.517 208.538 125.312C208.416 125.228 208.244 125.144 208.02 125.06C207.796 124.967 207.525 124.878 207.208 124.794C206.685 124.645 206.251 124.495 205.906 124.346C205.56 124.187 205.29 124.005 205.094 123.8C204.954 123.632 204.846 123.45 204.772 123.254C204.706 123.058 204.674 122.843 204.674 122.61C204.674 122.311 204.734 122.036 204.856 121.784C204.986 121.532 205.164 121.313 205.388 121.126C205.621 120.93 205.892 120.785 206.2 120.692C206.517 120.589 206.858 120.538 207.222 120.538C207.567 120.538 207.908 120.585 208.244 120.678C208.58 120.771 208.892 120.907 209.182 121.084C209.471 121.261 209.718 121.471 209.924 121.714L209.28 122.414C209.102 122.227 208.906 122.059 208.692 121.91C208.477 121.761 208.248 121.644 208.006 121.56C207.772 121.476 207.53 121.434 207.278 121.434C207.054 121.434 206.844 121.462 206.648 121.518C206.461 121.574 206.298 121.653 206.158 121.756C206.027 121.849 205.924 121.966 205.85 122.106C205.784 122.246 205.752 122.4 205.752 122.568C205.752 122.708 205.78 122.834 205.836 122.946C205.892 123.058 205.971 123.156 206.074 123.24C206.204 123.343 206.386 123.441 206.62 123.534C206.862 123.618 207.161 123.707 207.516 123.8C207.926 123.912 208.272 124.029 208.552 124.15C208.841 124.262 209.079 124.397 209.266 124.556C209.518 124.743 209.695 124.957 209.798 125.2C209.91 125.443 209.966 125.718 209.966 126.026C209.966 126.437 209.849 126.801 209.616 127.118C209.392 127.435 209.079 127.687 208.678 127.874C208.276 128.051 207.819 128.14 207.306 128.14Z" fill="#12324F"/>
<path d="M201.569 128V120.692H202.619V128H201.569ZM202.087 119.11C201.825 119.11 201.625 119.045 201.485 118.914C201.354 118.774 201.289 118.587 201.289 118.354C201.289 118.121 201.359 117.934 201.499 117.794C201.639 117.654 201.835 117.584 202.087 117.584C202.339 117.584 202.535 117.654 202.675 117.794C202.815 117.925 202.885 118.111 202.885 118.354C202.885 118.578 202.815 118.76 202.675 118.9C202.535 119.04 202.339 119.11 202.087 119.11Z" fill="#12324F"/>
<path d="M196.983 128.14C196.358 128.14 195.798 128.023 195.303 127.79C194.809 127.557 194.417 127.249 194.127 126.866L194.869 126.222C195.14 126.549 195.457 126.796 195.821 126.964C196.195 127.132 196.61 127.216 197.067 127.216C197.301 127.216 197.511 127.193 197.697 127.146C197.884 127.09 198.047 127.011 198.187 126.908C198.327 126.805 198.435 126.684 198.509 126.544C198.584 126.404 198.621 126.25 198.621 126.082C198.621 125.774 198.486 125.517 198.215 125.312C198.094 125.228 197.921 125.144 197.697 125.06C197.473 124.967 197.203 124.878 196.885 124.794C196.363 124.645 195.929 124.495 195.583 124.346C195.238 124.187 194.967 124.005 194.771 123.8C194.631 123.632 194.524 123.45 194.449 123.254C194.384 123.058 194.351 122.843 194.351 122.61C194.351 122.311 194.412 122.036 194.533 121.784C194.664 121.532 194.841 121.313 195.065 121.126C195.299 120.93 195.569 120.785 195.877 120.692C196.195 120.589 196.535 120.538 196.899 120.538C197.245 120.538 197.585 120.585 197.921 120.678C198.257 120.771 198.57 120.907 198.859 121.084C199.149 121.261 199.396 121.471 199.601 121.714L198.957 122.414C198.78 122.227 198.584 122.059 198.369 121.91C198.155 121.761 197.926 121.644 197.683 121.56C197.45 121.476 197.207 121.434 196.955 121.434C196.731 121.434 196.521 121.462 196.325 121.518C196.139 121.574 195.975 121.653 195.835 121.756C195.705 121.849 195.602 121.966 195.527 122.106C195.462 122.246 195.429 122.4 195.429 122.568C195.429 122.708 195.457 122.834 195.513 122.946C195.569 123.058 195.649 123.156 195.751 123.24C195.882 123.343 196.064 123.441 196.297 123.534C196.54 123.618 196.839 123.707 197.193 123.8C197.604 123.912 197.949 124.029 198.229 124.15C198.519 124.262 198.757 124.397 198.943 124.556C199.195 124.743 199.373 124.957 199.475 125.2C199.587 125.443 199.643 125.718 199.643 126.026C199.643 126.437 199.527 126.801 199.293 127.118C199.069 127.435 198.757 127.687 198.355 127.874C197.954 128.051 197.497 128.14 196.983 128.14Z" fill="#12324F"/>
<path d="M190.284 128.14C189.659 128.14 189.099 128.023 188.604 127.79C188.109 127.557 187.717 127.249 187.428 126.866L188.17 126.222C188.441 126.549 188.758 126.796 189.122 126.964C189.495 127.132 189.911 127.216 190.368 127.216C190.601 127.216 190.811 127.193 190.998 127.146C191.185 127.09 191.348 127.011 191.488 126.908C191.628 126.805 191.735 126.684 191.81 126.544C191.885 126.404 191.922 126.25 191.922 126.082C191.922 125.774 191.787 125.517 191.516 125.312C191.395 125.228 191.222 125.144 190.998 125.06C190.774 124.967 190.503 124.878 190.186 124.794C189.663 124.645 189.229 124.495 188.884 124.346C188.539 124.187 188.268 124.005 188.072 123.8C187.932 123.632 187.825 123.45 187.75 123.254C187.685 123.058 187.652 122.843 187.652 122.61C187.652 122.311 187.713 122.036 187.834 121.784C187.965 121.532 188.142 121.313 188.366 121.126C188.599 120.93 188.87 120.785 189.178 120.692C189.495 120.589 189.836 120.538 190.2 120.538C190.545 120.538 190.886 120.585 191.222 120.678C191.558 120.771 191.871 120.907 192.16 121.084C192.449 121.261 192.697 121.471 192.902 121.714L192.258 122.414C192.081 122.227 191.885 122.059 191.67 121.91C191.455 121.761 191.227 121.644 190.984 121.56C190.751 121.476 190.508 121.434 190.256 121.434C190.032 121.434 189.822 121.462 189.626 121.518C189.439 121.574 189.276 121.653 189.136 121.756C189.005 121.849 188.903 121.966 188.828 122.106C188.763 122.246 188.73 122.4 188.73 122.568C188.73 122.708 188.758 122.834 188.814 122.946C188.87 123.058 188.949 123.156 189.052 123.24C189.183 123.343 189.365 123.441 189.598 123.534C189.841 123.618 190.139 123.707 190.494 123.8C190.905 123.912 191.25 124.029 191.53 124.15C191.819 124.262 192.057 124.397 192.244 124.556C192.496 124.743 192.673 124.957 192.776 125.2C192.888 125.443 192.944 125.718 192.944 126.026C192.944 126.437 192.827 126.801 192.594 127.118C192.37 127.435 192.057 127.687 191.656 127.874C191.255 128.051 190.797 128.14 190.284 128.14Z" fill="#12324F"/>
<path d="M177.798 128L181.55 118.2H182.796L186.52 128H185.33L182.936 121.644C182.871 121.467 182.796 121.261 182.712 121.028C182.638 120.785 182.554 120.538 182.46 120.286C182.376 120.025 182.292 119.773 182.208 119.53C182.134 119.287 182.064 119.073 181.998 118.886H182.278C182.204 119.119 182.124 119.357 182.04 119.6C181.966 119.833 181.886 120.071 181.802 120.314C181.718 120.547 181.634 120.781 181.55 121.014C181.466 121.247 181.382 121.481 181.298 121.714L178.918 128H177.798ZM179.394 125.298L179.8 124.234H184.434L184.882 125.298H179.394Z" fill="#12324F"/>
<path d="M169.905 128.14C169.177 128.14 168.528 127.981 167.959 127.664C167.399 127.347 166.96 126.903 166.643 126.334C166.326 125.765 166.167 125.111 166.167 124.374C166.167 123.805 166.256 123.291 166.433 122.834C166.61 122.367 166.858 121.961 167.175 121.616C167.502 121.271 167.889 121.005 168.337 120.818C168.785 120.622 169.27 120.524 169.793 120.524C170.288 120.524 170.736 120.613 171.137 120.79C171.548 120.967 171.898 121.215 172.187 121.532C172.486 121.84 172.71 122.209 172.859 122.638C173.008 123.067 173.074 123.539 173.055 124.052L173.041 124.542H166.951L166.797 123.66H172.243L171.991 123.898V123.562C171.972 123.226 171.874 122.904 171.697 122.596C171.52 122.279 171.268 122.022 170.941 121.826C170.624 121.63 170.241 121.532 169.793 121.532C169.27 121.532 168.818 121.639 168.435 121.854C168.052 122.059 167.758 122.367 167.553 122.778C167.348 123.189 167.245 123.697 167.245 124.304C167.245 124.883 167.357 125.387 167.581 125.816C167.805 126.236 168.122 126.563 168.533 126.796C168.953 127.029 169.457 127.146 170.045 127.146C170.39 127.146 170.731 127.09 171.067 126.978C171.412 126.857 171.79 126.623 172.201 126.278L172.747 127.034C172.532 127.249 172.276 127.44 171.977 127.608C171.678 127.767 171.352 127.897 170.997 128C170.642 128.093 170.278 128.14 169.905 128.14Z" fill="#12324F"/>
<path d="M161.777 128V120.692H162.827L162.855 122.638L162.743 122.372C162.846 122.045 163.009 121.742 163.233 121.462C163.466 121.182 163.742 120.958 164.059 120.79C164.376 120.622 164.726 120.538 165.109 120.538C165.268 120.538 165.417 120.552 165.557 120.58C165.697 120.599 165.814 120.627 165.907 120.664L165.613 121.84C165.492 121.784 165.366 121.747 165.235 121.728C165.114 121.7 164.997 121.686 164.885 121.686C164.568 121.686 164.283 121.742 164.031 121.854C163.779 121.966 163.564 122.125 163.387 122.33C163.21 122.526 163.074 122.755 162.981 123.016C162.888 123.277 162.841 123.557 162.841 123.856V128H161.777Z" fill="#12324F"/>
<path d="M155.951 128.14C155.317 128.14 154.743 127.977 154.229 127.65C153.716 127.314 153.31 126.861 153.011 126.292C152.713 125.713 152.563 125.06 152.563 124.332C152.563 123.595 152.717 122.941 153.025 122.372C153.333 121.803 153.744 121.355 154.257 121.028C154.78 120.701 155.363 120.538 156.007 120.538C156.39 120.538 156.745 120.594 157.071 120.706C157.398 120.818 157.687 120.977 157.939 121.182C158.201 121.378 158.415 121.611 158.583 121.882C158.761 122.143 158.882 122.428 158.947 122.736L158.639 122.582L158.681 120.692H159.731V128H158.667V126.208L158.947 126.026C158.882 126.306 158.756 126.577 158.569 126.838C158.383 127.09 158.154 127.314 157.883 127.51C157.622 127.706 157.323 127.86 156.987 127.972C156.661 128.084 156.315 128.14 155.951 128.14ZM156.189 127.132C156.675 127.132 157.109 127.015 157.491 126.782C157.874 126.539 158.173 126.208 158.387 125.788C158.611 125.359 158.723 124.873 158.723 124.332C158.723 123.791 158.611 123.31 158.387 122.89C158.173 122.47 157.874 122.139 157.491 121.896C157.109 121.653 156.675 121.532 156.189 121.532C155.695 121.532 155.256 121.653 154.873 121.896C154.5 122.139 154.201 122.47 153.977 122.89C153.763 123.31 153.655 123.791 153.655 124.332C153.655 124.864 153.763 125.345 153.977 125.774C154.192 126.194 154.491 126.525 154.873 126.768C155.256 127.011 155.695 127.132 156.189 127.132Z" fill="#12324F"/>
<path d="M148.806 128.14C148.115 128.14 147.499 127.977 146.958 127.65C146.417 127.314 145.987 126.861 145.67 126.292C145.362 125.713 145.208 125.06 145.208 124.332C145.208 123.604 145.362 122.955 145.67 122.386C145.987 121.807 146.417 121.355 146.958 121.028C147.499 120.701 148.12 120.538 148.82 120.538C149.445 120.538 150.015 120.664 150.528 120.916C151.041 121.159 151.452 121.499 151.76 121.938L151.144 122.694C150.967 122.461 150.752 122.255 150.5 122.078C150.257 121.901 149.991 121.765 149.702 121.672C149.422 121.569 149.142 121.518 148.862 121.518C148.367 121.518 147.924 121.644 147.532 121.896C147.14 122.139 146.827 122.47 146.594 122.89C146.37 123.31 146.258 123.791 146.258 124.332C146.258 124.873 146.37 125.359 146.594 125.788C146.827 126.208 147.14 126.539 147.532 126.782C147.924 127.025 148.363 127.146 148.848 127.146C149.128 127.146 149.403 127.104 149.674 127.02C149.945 126.927 150.201 126.796 150.444 126.628C150.687 126.46 150.911 126.25 151.116 125.998L151.732 126.754C151.415 127.174 150.99 127.51 150.458 127.762C149.926 128.014 149.375 128.14 148.806 128.14Z" fill="#12324F"/>
<path d="M137.66 128V117.64H138.71V122.288L138.5 122.498C138.602 122.115 138.794 121.779 139.074 121.49C139.354 121.191 139.68 120.958 140.054 120.79C140.436 120.622 140.824 120.538 141.216 120.538C141.776 120.538 142.242 120.645 142.616 120.86C142.989 121.075 143.264 121.406 143.442 121.854C143.628 122.302 143.722 122.871 143.722 123.562V128H142.658V123.618C142.658 123.133 142.592 122.736 142.462 122.428C142.34 122.111 142.149 121.877 141.888 121.728C141.626 121.579 141.3 121.509 140.908 121.518C140.6 121.518 140.31 121.574 140.04 121.686C139.769 121.789 139.536 121.933 139.34 122.12C139.144 122.307 138.99 122.521 138.878 122.764C138.766 123.007 138.71 123.268 138.71 123.548V128H138.192C138.126 128 138.052 128 137.968 128C137.884 128 137.781 128 137.66 128Z" fill="#12324F"/>
<path d="M133.472 128V118.774H134.522V128H133.472ZM131.82 121.7V120.692H136.37V121.7H131.82Z" fill="#12324F"/>
<path d="M129.389 128V117.64H130.439V128H129.389Z" fill="#12324F"/>
<path d="M123.535 128.14C122.901 128.14 122.327 127.977 121.813 127.65C121.3 127.314 120.894 126.861 120.595 126.292C120.297 125.713 120.147 125.06 120.147 124.332C120.147 123.595 120.301 122.941 120.609 122.372C120.917 121.803 121.328 121.355 121.841 121.028C122.364 120.701 122.947 120.538 123.591 120.538C123.974 120.538 124.329 120.594 124.655 120.706C124.982 120.818 125.271 120.977 125.523 121.182C125.785 121.378 125.999 121.611 126.167 121.882C126.345 122.143 126.466 122.428 126.531 122.736L126.223 122.582L126.265 120.692H127.315V128H126.251V126.208L126.531 126.026C126.466 126.306 126.34 126.577 126.153 126.838C125.967 127.09 125.738 127.314 125.467 127.51C125.206 127.706 124.907 127.86 124.571 127.972C124.245 128.084 123.899 128.14 123.535 128.14ZM123.773 127.132C124.259 127.132 124.693 127.015 125.075 126.782C125.458 126.539 125.757 126.208 125.971 125.788C126.195 125.359 126.307 124.873 126.307 124.332C126.307 123.791 126.195 123.31 125.971 122.89C125.757 122.47 125.458 122.139 125.075 121.896C124.693 121.653 124.259 121.532 123.773 121.532C123.279 121.532 122.84 121.653 122.457 121.896C122.084 122.139 121.785 122.47 121.561 122.89C121.347 123.31 121.239 123.791 121.239 124.332C121.239 124.864 121.347 125.345 121.561 125.774C121.776 126.194 122.075 126.525 122.457 126.768C122.84 127.011 123.279 127.132 123.773 127.132Z" fill="#12324F"/>
<path d="M116.038 128.14C115.31 128.14 114.661 127.981 114.092 127.664C113.532 127.347 113.093 126.903 112.776 126.334C112.458 125.765 112.3 125.111 112.3 124.374C112.3 123.805 112.388 123.291 112.566 122.834C112.743 122.367 112.99 121.961 113.308 121.616C113.634 121.271 114.022 121.005 114.47 120.818C114.918 120.622 115.403 120.524 115.926 120.524C116.42 120.524 116.868 120.613 117.27 120.79C117.68 120.967 118.03 121.215 118.32 121.532C118.618 121.84 118.842 122.209 118.992 122.638C119.141 123.067 119.206 123.539 119.188 124.052L119.174 124.542H113.084L112.93 123.66H118.376L118.124 123.898V123.562C118.105 123.226 118.007 122.904 117.83 122.596C117.652 122.279 117.4 122.022 117.074 121.826C116.756 121.63 116.374 121.532 115.926 121.532C115.403 121.532 114.95 121.639 114.568 121.854C114.185 122.059 113.891 122.367 113.686 122.778C113.48 123.189 113.378 123.697 113.378 124.304C113.378 124.883 113.49 125.387 113.714 125.816C113.938 126.236 114.255 126.563 114.666 126.796C115.086 127.029 115.59 127.146 116.178 127.146C116.523 127.146 116.864 127.09 117.2 126.978C117.545 126.857 117.923 126.623 118.334 126.278L118.88 127.034C118.665 127.249 118.408 127.44 118.11 127.608C117.811 127.767 117.484 127.897 117.13 128C116.775 128.093 116.411 128.14 116.038 128.14Z" fill="#12324F"/>
<path d="M109.262 128V118.2H110.354V128H109.262ZM102.71 128V118.2H103.802V128H102.71ZM103.242 123.646V122.582H109.724V123.646H103.242Z" fill="#12324F"/>
<path d="M93.7253 128.14C92.9973 128.14 92.3486 127.981 91.7793 127.664C91.2193 127.347 90.7806 126.903 90.4633 126.334C90.146 125.765 89.9873 125.111 89.9873 124.374C89.9873 123.805 90.076 123.291 90.2533 122.834C90.4306 122.367 90.678 121.961 90.9953 121.616C91.322 121.271 91.7093 121.005 92.1573 120.818C92.6053 120.622 93.0906 120.524 93.6133 120.524C94.108 120.524 94.556 120.613 94.9573 120.79C95.368 120.967 95.718 121.215 96.0073 121.532C96.306 121.84 96.53 122.209 96.6793 122.638C96.8286 123.067 96.894 123.539 96.8753 124.052L96.8613 124.542H90.7713L90.6173 123.66H96.0633L95.8113 123.898V123.562C95.7926 123.226 95.6946 122.904 95.5173 122.596C95.34 122.279 95.088 122.022 94.7613 121.826C94.444 121.63 94.0613 121.532 93.6133 121.532C93.0906 121.532 92.638 121.639 92.2553 121.854C91.8726 122.059 91.5786 122.367 91.3733 122.778C91.168 123.189 91.0653 123.697 91.0653 124.304C91.0653 124.883 91.1773 125.387 91.4013 125.816C91.6253 126.236 91.9426 126.563 92.3533 126.796C92.7733 127.029 93.2773 127.146 93.8653 127.146C94.2106 127.146 94.5513 127.09 94.8873 126.978C95.2326 126.857 95.6106 126.623 96.0213 126.278L96.5673 127.034C96.3526 127.249 96.096 127.44 95.7973 127.608C95.4986 127.767 95.172 127.897 94.8173 128C94.4626 128.093 94.0986 128.14 93.7253 128.14Z" fill="#12324F"/>
<path d="M86.3864 128V118.774H87.4364V128H86.3864ZM84.7344 121.7V120.692H89.2844V121.7H84.7344Z" fill="#12324F"/>
<path d="M80.737 128.14C80.009 128.14 79.3604 127.981 78.791 127.664C78.231 127.347 77.7924 126.903 77.475 126.334C77.1577 125.765 76.999 125.111 76.999 124.374C76.999 123.805 77.0877 123.291 77.265 122.834C77.4424 122.367 77.6897 121.961 78.007 121.616C78.3337 121.271 78.721 121.005 79.169 120.818C79.617 120.622 80.1024 120.524 80.625 120.524C81.1197 120.524 81.5677 120.613 81.969 120.79C82.3797 120.967 82.7297 121.215 83.019 121.532C83.3177 121.84 83.5417 122.209 83.691 122.638C83.8404 123.067 83.9057 123.539 83.887 124.052L83.873 124.542H77.783L77.629 123.66H83.075L82.823 123.898V123.562C82.8044 123.226 82.7064 122.904 82.529 122.596C82.3517 122.279 82.0997 122.022 81.773 121.826C81.4557 121.63 81.073 121.532 80.625 121.532C80.1024 121.532 79.6497 121.639 79.267 121.854C78.8844 122.059 78.5904 122.367 78.385 122.778C78.1797 123.189 78.077 123.697 78.077 124.304C78.077 124.883 78.189 125.387 78.413 125.816C78.637 126.236 78.9544 126.563 79.365 126.796C79.785 127.029 80.289 127.146 80.877 127.146C81.2224 127.146 81.563 127.09 81.899 126.978C82.2444 126.857 82.6224 126.623 83.033 126.278L83.579 127.034C83.3644 127.249 83.1077 127.44 82.809 127.608C82.5104 127.767 82.1837 127.897 81.829 128C81.4744 128.093 81.1104 128.14 80.737 128.14Z" fill="#12324F"/>
<path d="M74.5372 128V117.64H75.5872V128H74.5372Z" fill="#12324F"/>
<path d="M65.8003 131.08V120.692H66.8503L66.8783 122.47L66.6823 122.498C66.7663 122.143 66.9483 121.821 67.2283 121.532C67.5083 121.233 67.849 120.995 68.2503 120.818C68.6516 120.641 69.0763 120.552 69.5243 120.552C70.1776 120.552 70.761 120.715 71.2743 121.042C71.797 121.369 72.2123 121.817 72.5203 122.386C72.8283 122.955 72.9823 123.609 72.9823 124.346C72.9823 125.074 72.833 125.723 72.5343 126.292C72.2356 126.861 71.825 127.314 71.3023 127.65C70.7796 127.977 70.1916 128.14 69.5383 128.14C69.081 128.14 68.647 128.047 68.2363 127.86C67.8256 127.673 67.4756 127.431 67.1863 127.132C66.897 126.824 66.7056 126.493 66.6123 126.138H66.8643V131.08H65.8003ZM69.3703 127.132C69.865 127.132 70.3036 127.011 70.6863 126.768C71.069 126.525 71.3723 126.194 71.5963 125.774C71.8203 125.354 71.9323 124.878 71.9323 124.346C71.9323 123.805 71.8203 123.324 71.5963 122.904C71.3723 122.484 71.069 122.153 70.6863 121.91C70.3036 121.667 69.865 121.546 69.3703 121.546C68.8756 121.546 68.4323 121.667 68.0403 121.91C67.6576 122.143 67.3543 122.47 67.1303 122.89C66.9063 123.31 66.7943 123.791 66.7943 124.332C66.7943 124.873 66.9063 125.354 67.1303 125.774C67.3543 126.194 67.6576 126.525 68.0403 126.768C68.4323 127.011 68.8756 127.132 69.3703 127.132Z" fill="#12324F"/>
<path d="M53.0304 128V120.692H54.0804L54.1084 122.358L53.8984 122.428C53.9731 122.148 54.0944 121.896 54.2624 121.672C54.4397 121.439 54.6497 121.238 54.8924 121.07C55.1351 120.902 55.4011 120.776 55.6904 120.692C55.9797 120.599 56.2831 120.552 56.6004 120.552C56.9831 120.552 57.3237 120.617 57.6224 120.748C57.9304 120.869 58.1871 121.084 58.3924 121.392C58.6071 121.691 58.7704 122.087 58.8824 122.582L58.6304 122.456L58.7284 122.218C58.8217 122.003 58.9571 121.798 59.1344 121.602C59.3211 121.397 59.5311 121.215 59.7644 121.056C60.0071 120.897 60.2684 120.776 60.5484 120.692C60.8377 120.599 61.1317 120.552 61.4304 120.552C61.9437 120.552 62.3777 120.664 62.7324 120.888C63.0871 121.103 63.3531 121.434 63.5304 121.882C63.7171 122.33 63.8104 122.899 63.8104 123.59V128H62.7324V123.646C62.7324 123.161 62.6717 122.764 62.5504 122.456C62.4291 122.148 62.2471 121.919 62.0044 121.77C61.7711 121.611 61.4724 121.532 61.1084 121.532C60.7911 121.532 60.4971 121.588 60.2264 121.7C59.9651 121.803 59.7364 121.952 59.5404 122.148C59.3537 122.335 59.2044 122.549 59.0924 122.792C58.9897 123.035 58.9384 123.296 58.9384 123.576V128H57.8744V123.632C57.8744 123.165 57.8091 122.778 57.6784 122.47C57.5571 122.162 57.3751 121.929 57.1324 121.77C56.8897 121.611 56.5911 121.532 56.2364 121.532C55.9284 121.532 55.6437 121.588 55.3824 121.7C55.1211 121.803 54.8924 121.947 54.6964 122.134C54.5097 122.321 54.3604 122.535 54.2484 122.778C54.1457 123.021 54.0944 123.282 54.0944 123.562V128H53.0304Z" fill="#12324F"/>
<path d="M47.7745 128.14C47.0465 128.14 46.3978 127.977 45.8285 127.65C45.2685 127.323 44.8251 126.871 44.4985 126.292C44.1811 125.713 44.0225 125.055 44.0225 124.318C44.0225 123.59 44.1811 122.941 44.4985 122.372C44.8251 121.803 45.2685 121.355 45.8285 121.028C46.3978 120.701 47.0465 120.538 47.7745 120.538C48.4931 120.538 49.1325 120.701 49.6925 121.028C50.2618 121.355 50.7051 121.803 51.0225 122.372C51.3491 122.941 51.5125 123.59 51.5125 124.318C51.5125 125.055 51.3491 125.713 51.0225 126.292C50.7051 126.871 50.2618 127.323 49.6925 127.65C49.1325 127.977 48.4931 128.14 47.7745 128.14ZM47.7745 127.146C48.2878 127.146 48.7451 127.025 49.1465 126.782C49.5478 126.53 49.8605 126.194 50.0845 125.774C50.3085 125.345 50.4205 124.859 50.4205 124.318C50.4205 123.777 50.3085 123.296 50.0845 122.876C49.8605 122.456 49.5478 122.129 49.1465 121.896C48.7451 121.653 48.2878 121.532 47.7745 121.532C47.2611 121.532 46.7991 121.653 46.3885 121.896C45.9871 122.129 45.6698 122.461 45.4365 122.89C45.2125 123.31 45.1051 123.786 45.1145 124.318C45.1051 124.859 45.2125 125.345 45.4365 125.774C45.6698 126.194 45.9871 126.53 46.3885 126.782C46.7991 127.025 47.2611 127.146 47.7745 127.146Z" fill="#12324F"/>
<path d="M39.5597 128.14C38.8597 128.14 38.2157 128.019 37.6277 127.776C37.0397 127.524 36.531 127.174 36.1017 126.726C35.6723 126.269 35.3363 125.732 35.0937 125.116C34.8603 124.5 34.7437 123.828 34.7437 123.1C34.7437 122.381 34.8603 121.723 35.0937 121.126C35.3363 120.519 35.677 119.992 36.1157 119.544C36.5543 119.087 37.063 118.737 37.6417 118.494C38.2203 118.251 38.855 118.13 39.5457 118.13C40.003 118.13 40.4557 118.205 40.9037 118.354C41.3517 118.494 41.7623 118.69 42.1357 118.942C42.5183 119.194 42.831 119.483 43.0737 119.81L42.3177 120.594C42.0843 120.314 41.8137 120.071 41.5057 119.866C41.207 119.661 40.8896 119.502 40.5536 119.39C40.2177 119.278 39.8817 119.222 39.5457 119.222C39.023 119.222 38.533 119.32 38.0757 119.516C37.6277 119.703 37.2403 119.969 36.9137 120.314C36.587 120.659 36.3303 121.07 36.1437 121.546C35.9663 122.022 35.8777 122.54 35.8777 123.1C35.8777 123.679 35.9663 124.211 36.1437 124.696C36.3303 125.181 36.5917 125.601 36.9277 125.956C37.273 126.301 37.6743 126.572 38.1317 126.768C38.5983 126.955 39.1163 127.048 39.6856 127.048C40.0216 127.048 40.3577 127.001 40.6937 126.908C41.0297 126.805 41.3377 126.665 41.6177 126.488C41.8977 126.311 42.1357 126.11 42.3317 125.886L42.8917 126.796C42.677 127.057 42.3877 127.291 42.0237 127.496C41.669 127.692 41.277 127.851 40.8477 127.972C40.4183 128.084 39.989 128.14 39.5597 128.14Z" fill="#12324F"/>
<path d="M25.9331 128V120.692H26.9831L27.0111 122.638L26.8991 122.372C27.0018 122.045 27.1651 121.742 27.3891 121.462C27.6224 121.182 27.8978 120.958 28.2151 120.79C28.5324 120.622 28.8824 120.538 29.2651 120.538C29.4238 120.538 29.5731 120.552 29.7131 120.58C29.8531 120.599 29.9698 120.627 30.0631 120.664L29.7691 121.84C29.6478 121.784 29.5218 121.747 29.3911 121.728C29.2698 121.7 29.1531 121.686 29.0411 121.686C28.7238 121.686 28.4391 121.742 28.1871 121.854C27.9351 121.966 27.7204 122.125 27.5431 122.33C27.3658 122.526 27.2304 122.755 27.1371 123.016C27.0438 123.277 26.9971 123.557 26.9971 123.856V128H25.9331Z" fill="#12324F"/>
<path d="M20.3748 128.14C19.8148 128.14 19.3388 128.028 18.9468 127.804C18.5641 127.571 18.2701 127.235 18.0648 126.796C17.8688 126.357 17.7708 125.811 17.7708 125.158V120.692H18.8348V124.948C18.8348 125.443 18.9001 125.858 19.0308 126.194C19.1708 126.521 19.3761 126.768 19.6468 126.936C19.9268 127.104 20.2674 127.188 20.6688 127.188C20.9768 127.188 21.2614 127.137 21.5228 127.034C21.7841 126.922 22.0128 126.773 22.2088 126.586C22.4048 126.399 22.5588 126.18 22.6708 125.928C22.7828 125.676 22.8388 125.41 22.8388 125.13V120.692H23.8888V128H22.8528L22.8108 126.46L22.9788 126.376C22.8668 126.703 22.6801 127.001 22.4188 127.272C22.1574 127.533 21.8448 127.743 21.4808 127.902C21.1261 128.061 20.7574 128.14 20.3748 128.14Z" fill="#12324F"/>
<path d="M12.5147 128.14C11.7867 128.14 11.138 127.977 10.5687 127.65C10.0087 127.323 9.56536 126.871 9.2387 126.292C8.92136 125.713 8.7627 125.055 8.7627 124.318C8.7627 123.59 8.92136 122.941 9.2387 122.372C9.56536 121.803 10.0087 121.355 10.5687 121.028C11.138 120.701 11.7867 120.538 12.5147 120.538C13.2334 120.538 13.8727 120.701 14.4327 121.028C15.002 121.355 15.4454 121.803 15.7627 122.372C16.0894 122.941 16.2527 123.59 16.2527 124.318C16.2527 125.055 16.0894 125.713 15.7627 126.292C15.4454 126.871 15.002 127.323 14.4327 127.65C13.8727 127.977 13.2334 128.14 12.5147 128.14ZM12.5147 127.146C13.028 127.146 13.4854 127.025 13.8867 126.782C14.288 126.53 14.6007 126.194 14.8247 125.774C15.0487 125.345 15.1607 124.859 15.1607 124.318C15.1607 123.777 15.0487 123.296 14.8247 122.876C14.6007 122.456 14.288 122.129 13.8867 121.896C13.4854 121.653 13.028 121.532 12.5147 121.532C12.0014 121.532 11.5394 121.653 11.1287 121.896C10.7274 122.129 10.41 122.461 10.1767 122.89C9.9527 123.31 9.84536 123.786 9.8547 124.318C9.84536 124.859 9.9527 125.345 10.1767 125.774C10.41 126.194 10.7274 126.53 11.1287 126.782C11.5394 127.025 12.0014 127.146 12.5147 127.146Z" fill="#12324F"/>
<path d="M4.4724 128V123.114L4.5704 123.8L0.608398 118.2H1.9384L5.1864 122.848L4.8924 122.82L7.8744 118.2H9.1344L5.3404 123.954L5.5504 123.002V128H4.4724Z" fill="#12324F"/>
<g clip-path="url(#clip0_12_1148)">
<path d="M131.613 14.2716C131.189 11.8108 130.863 9.3467 130.563 6.87618C130.448 6.06343 130.027 5.29905 129.379 4.82172C128.846 4.42501 128.185 4.23473 127.541 4.296C126.807 4.36696 125.335 4.49597 124.601 4.56047C120.928 4.87654 117.254 5.12166 113.574 5.32163C113.514 5.32808 113.37 5.3313 113.313 5.33453C112.687 5.41193 112.148 5.91184 112.052 6.54076C112.026 6.66332 112.039 6.7891 112.039 6.91489C112.148 10.1562 112.243 13.4298 112.275 16.6712C112.266 17.3936 112.16 18.1225 111.947 18.8127C111.098 21.6187 108.484 23.7376 105.583 23.9279C105.359 23.9441 104.928 23.9602 104.782 23.9537C101.73 23.957 98.1654 23.915 95.1142 23.8538C94.3387 23.8505 93.7482 24.5246 93.7769 25.3019C93.6652 28.2368 93.5216 31.2169 93.3461 34.1454C93.2248 36.0999 93.0844 38.106 92.9375 40.0637C92.9216 40.6765 93.1514 41.2958 93.5631 41.7699C93.9397 42.2149 94.495 42.5536 95.0727 42.6794C95.1429 42.6923 95.2419 42.7149 95.3089 42.7278C98.3824 43.0535 101.434 43.4147 104.491 43.9243C101.379 44.4629 98.2707 44.8887 95.1397 45.2176L94.8908 45.2273H94.7663C94.7248 45.2273 94.6833 45.2273 94.6419 45.2273L94.3929 45.2112C91.6992 45.0015 89.5098 42.7213 89.2704 40.0024C89.2385 39.7477 89.1874 39.0542 89.1619 38.7801C88.8587 35.1969 88.6225 31.6104 88.4278 28.0207C88.3864 27.2983 88.3289 26.0372 88.2938 25.3309C88.2906 25.2374 88.281 25.089 88.2842 24.9987C88.2108 21.3574 91.0609 18.2096 94.645 17.8903C94.9546 17.8645 95.3344 17.8452 95.6281 17.8387C98.5356 17.7549 101.836 17.6904 104.756 17.6646C105.075 17.6613 105.168 17.6678 105.417 17.5742C105.742 17.4323 105.998 17.1227 106.065 16.7744C106.065 16.7421 106.084 16.7099 106.08 16.6776C106.08 16.6615 106.08 16.6422 106.08 16.626L106.084 16.6002V16.5873L106.087 16.5809V16.5583C106.103 13.3686 106.154 10.1401 106.237 6.94714C106.246 6.72137 106.259 6.52786 106.275 6.31499C106.604 2.80595 109.598 -0.0161184 113.096 7.73349e-06H113.249H113.287H113.313H113.36L113.552 0.0096834C117.733 0.196746 121.933 0.448314 126.108 0.786962L126.867 0.848241L127.247 0.880494C128.817 0.967575 130.308 1.6481 131.326 2.85433C132.411 4.13152 132.794 5.71188 132.542 7.34707C132.277 9.65633 131.993 11.9656 131.616 14.2716H131.613Z" fill="#414AB6"/>
<path d="M122.482 29.1947C118.872 31.075 114.995 33.6681 113.038 37.3674C112.24 38.8704 111.784 40.5314 111.557 42.2214C111.404 43.3954 111.321 44.5919 111.283 45.7756C111.197 48.159 111.398 50.6876 111.564 53.0807C111.666 54.4289 111.752 56.1221 111.876 57.4799C111.921 57.8766 111.972 58.3153 112.141 58.6055C112.4 59.0248 112.939 59.3054 113.421 59.2603C117.123 59.1345 120.902 59.0538 124.598 58.9926C125.236 58.9926 126.794 58.9571 127.407 58.9539H127.518C127.55 58.9474 127.579 58.9442 127.611 58.9442C127.652 58.9442 127.687 58.9248 127.729 58.9248C128.214 58.812 128.565 58.3636 128.575 57.8605C128.575 57.6605 128.575 57.2445 128.575 57.0381C128.575 54.4289 128.578 50.5554 128.632 47.9365C128.677 46.7851 129.002 45.6434 129.567 44.6435C130.802 42.4375 133.231 41.0055 135.74 41.0313C139.002 41.0958 142.276 41.199 145.538 41.3248C145.838 41.3409 146.135 41.3312 146.422 41.2151C146.926 41.0055 147.332 40.5733 147.491 40.0379C147.498 40.0025 147.507 39.967 147.517 39.9315L147.533 39.8799C147.545 39.8154 147.549 39.7509 147.565 39.6864C147.565 39.6735 147.568 39.6735 147.571 39.6477C147.817 34.7808 148.126 29.8914 148.532 25.0342C148.532 25.0148 148.535 24.9923 148.535 24.9794L148.538 24.8955L148.551 24.7246L148.554 24.6826V24.6407L148.548 24.5536C148.548 24.4956 148.544 24.4375 148.544 24.3795L148.522 24.2053C148.513 24.1473 148.513 24.086 148.497 24.0311L148.455 23.8602L148.436 23.7731C148.391 23.657 148.343 23.4667 148.28 23.3506L148.206 23.1829L148.114 23.0249C147.673 22.2476 146.894 21.6574 146.02 21.4316C145.873 21.3865 145.672 21.3542 145.519 21.3284C144.073 21.1704 142.63 21.0059 141.185 20.8059C142.627 20.5898 144.07 20.4157 145.512 20.2415L145.643 20.2351L145.908 20.2222C147.769 20.177 149.492 21.2833 150.348 22.9507L150.408 23.0862L150.53 23.3571C150.606 23.5409 150.664 23.7344 150.727 23.9215C150.766 24.0989 150.83 24.3343 150.855 24.5117C151.334 29.1754 151.647 33.8874 151.947 38.5672C151.953 38.6446 152.007 39.5767 152.011 39.6315C152.173 43.318 149.208 46.4174 145.548 46.4852C142.314 46.64 139.069 46.769 135.836 46.869H135.81H135.8L135.781 46.8754C135.708 46.8851 135.638 46.9012 135.567 46.9173C135.523 46.927 135.481 46.956 135.433 46.9625C135.031 47.1302 134.734 47.5075 134.671 47.9397C134.648 48.2268 134.738 51.8971 134.734 52.2841C134.744 53.6032 134.805 56.7607 134.789 58.054C134.731 61.992 131.441 65.2463 127.541 65.2334C123.468 65.2269 119.319 65.1818 115.247 65.1011L113.316 65.056C112.786 65.0399 112.259 64.9625 111.752 64.827C109.224 64.1691 107.134 61.9727 106.728 59.357C106.613 58.6829 106.591 58.1572 106.582 57.5348C106.613 54.8449 106.639 52.0487 106.786 49.3491C106.901 47.3689 107.137 45.3724 107.545 43.4276C108.082 40.7281 109.023 38.0415 110.718 35.8484C113.526 32.1684 118.052 30.1107 122.46 29.2044L122.482 29.1947Z" fill="#E52C77"/>
<path d="M139.349 17.6839C139.321 17.3001 139.286 16.8808 139.241 16.4938C139.19 15.8391 138.979 15.2166 138.539 14.678C137.447 13.3266 135.465 13.1395 134.144 14.2652C131.521 16.4293 128.785 18.1806 125.763 19.2707C125.032 19.5223 124.285 19.7416 123.529 19.9125C120.838 20.4866 117.883 20.5189 115.049 21.2381C113.999 21.4961 112.958 21.8638 111.969 22.3056C105.905 25.0761 104.169 31.046 106.294 37.1578C106.61 32.2683 108.037 27.7337 113.153 26.3662C114.404 26.0211 115.7 25.8695 116.996 25.8211C119.664 25.7244 122.753 25.9598 125.549 25.418C125.964 25.3373 126.57 25.2148 126.969 25.1051C127.164 25.0535 127.48 24.9793 127.671 24.9181C128.571 24.6633 129.526 24.3149 130.391 23.9569C130.595 23.8666 131.182 23.6086 131.371 23.5183C131.674 23.3667 132.028 23.1958 132.325 23.041C132.654 22.87 132.982 22.6862 133.305 22.4991C133.295 25.2051 133.059 27.9304 132.389 30.5009C131.827 32.5618 131.035 34.3905 129.58 35.8612C129.494 35.9419 129.443 36.0128 129.337 36.0902C127.738 37.4061 125.99 38.4511 124.081 39.3316C121.18 40.6443 118.074 41.4054 114.851 41.6537C120.471 43.5663 127.078 42.5891 132.162 39.5219C132.689 39.1736 133.199 38.7639 133.662 38.335C137.45 34.7356 138.832 29.3334 139.298 24.302C139.493 22.096 139.503 19.8932 139.346 17.6871L139.349 17.6839Z" fill="#17BA7F"/>
<path d="M53.0875 74.1511L59.509 92.4768L65.8985 74.1511H72.6646V99.4175H67.4943V92.5091L68.0081 80.5854L61.2579 99.4143H57.7217L50.9906 80.6016L51.5045 92.5059V99.4143H46.3564V74.1479H53.0875V74.1511Z" fill="#22275E"/>
<path d="M83.7778 92.3188L87.2119 80.6403H92.5355L85.064 102.333L84.6523 103.323C83.5416 105.774 81.7096 107.003 79.1564 107.003C78.4351 107.003 77.701 106.894 76.9574 106.674V102.875L77.7138 102.891C78.6521 102.891 79.3543 102.746 79.817 102.456C80.2798 102.165 80.6437 101.685 80.9086 101.014L81.4926 99.4691L74.985 80.6403H80.3245L83.7778 92.3188Z" fill="#22275E"/>
<path d="M115.17 99.4175H110.019V88.5872H99.9718V99.4175H94.8206V74.1511H99.9718V84.3912H110.019V74.1511H115.17V99.4175Z" fill="#22275E"/>
<path d="M127.895 99.7658C125.169 99.7658 122.951 98.9208 121.24 97.2308C119.53 95.5408 118.674 93.2928 118.674 90.4804V89.9934C118.674 88.1066 119.035 86.4199 119.756 84.933C120.478 83.4462 121.499 82.3012 122.823 81.4982C124.145 80.6951 125.654 80.2919 127.349 80.2919C129.89 80.2919 131.891 81.1015 133.353 82.7205C134.811 84.3396 135.542 86.6359 135.542 89.6096V91.6576H123.711C123.87 92.8832 124.355 93.8669 125.163 94.6087C125.97 95.3505 126.992 95.7182 128.227 95.7182C130.139 95.7182 131.632 95.0183 132.708 93.6185L135.146 96.3761C134.403 97.4404 133.394 98.2726 132.124 98.866C130.854 99.4627 129.446 99.7594 127.898 99.7594L127.895 99.7658ZM127.327 84.3364C126.344 84.3364 125.543 84.675 124.93 85.3491C124.317 86.0232 123.925 86.9875 123.752 88.2421H130.656V87.8422C130.633 86.7262 130.336 85.8651 129.762 85.2523C129.188 84.6395 128.377 84.3364 127.324 84.3364H127.327Z" fill="#22275E"/>
<path d="M149.122 99.4175C148.892 98.966 148.726 98.4048 148.624 97.7339C147.421 99.0885 145.86 99.7658 143.936 99.7658C142.117 99.7658 140.607 99.2337 139.41 98.1694C138.213 97.105 137.616 95.7633 137.616 94.1443C137.616 92.1543 138.347 90.6256 139.806 89.5612C141.264 88.4969 143.374 87.9583 146.135 87.9486H148.42V86.8714C148.42 86.0038 148.2 85.3104 147.759 84.7879C147.319 84.2686 146.623 84.0074 145.672 84.0074C144.836 84.0074 144.182 84.2106 143.706 84.6137C143.23 85.0201 142.994 85.5749 142.994 86.2812H138.031C138.031 85.1943 138.363 84.188 139.027 83.2624C139.691 82.3367 140.629 81.6111 141.842 81.0853C143.055 80.5596 144.418 80.2952 145.931 80.2952C148.219 80.2952 150.038 80.8757 151.382 82.04C152.725 83.2011 153.399 84.8363 153.399 86.9424V95.0828C153.412 96.8631 153.657 98.2113 154.136 99.1272V99.424H149.122V99.4175ZM145.018 95.9278C145.749 95.9278 146.425 95.7633 147.044 95.4344C147.664 95.1054 148.12 94.6635 148.417 94.1056V90.8771H146.562C144.076 90.8771 142.755 91.7447 142.595 93.4799L142.579 93.7734C142.579 94.3991 142.796 94.9119 143.23 95.3183C143.665 95.7246 144.261 95.9246 145.018 95.9246V95.9278Z" fill="#22275E"/>
<path d="M162.447 99.4175H157.468V72.761H162.447V99.4175Z" fill="#22275E"/>
<path d="M172.478 76.025V80.6403H175.657V84.3202H172.478V93.6927C172.478 94.3862 172.609 94.8861 172.874 95.186C173.136 95.486 173.64 95.6375 174.384 95.6375C174.932 95.6375 175.421 95.5988 175.842 95.515V99.3143C174.869 99.6142 173.866 99.7658 172.836 99.7658C169.354 99.7658 167.579 97.9887 167.512 94.4378V84.3202H164.799V80.6403H167.512V76.025H172.475H172.478Z" fill="#22275E"/>
<path d="M183.262 82.6883C184.577 81.0918 186.234 80.2919 188.225 80.2919C192.256 80.2919 194.299 82.6593 194.356 87.3907V99.4175H189.393V87.5293C189.393 86.4521 189.164 85.6587 188.707 85.1427C188.248 84.6266 187.488 84.3718 186.422 84.3718C184.967 84.3718 183.914 84.9395 183.262 86.0715V99.4175H178.3V72.761H183.262V82.6883Z" fill="#22275E"/>
</g>
<defs>
<clipPath id="clip0_12_1148">
<rect width="148" height="107" fill="white" transform="translate(46.3564)"/>
</clipPath>
</defs>
</svg>
