<svg width="208" height="149" viewBox="0 0 208 149" fill="none" xmlns="http://www.w3.org/2000/svg">
<g clip-path="url(#clip0_12_1000)">
<path d="M119.82 19.8735C119.224 16.4467 118.766 13.0155 118.345 9.57521C118.183 8.44343 117.591 7.37901 116.681 6.71432C115.932 6.1619 115.003 5.89692 114.097 5.98225C113.065 6.08106 110.998 6.2607 109.966 6.35053C104.803 6.79067 99.6404 7.132 94.4686 7.41045C94.3834 7.41943 94.1815 7.42393 94.1008 7.42842C93.2216 7.53621 92.4636 8.23234 92.329 9.10812C92.2932 9.27879 92.3111 9.45395 92.3111 9.6291C92.4636 14.1428 92.5982 18.7013 92.643 23.215C92.6296 24.221 92.4815 25.236 92.181 26.1971C90.9879 30.1045 87.3143 33.0552 83.237 33.3202C82.923 33.3426 82.3175 33.3651 82.1111 33.3561C77.823 33.3606 72.8128 33.3022 68.5247 33.2169C67.4347 33.2124 66.6049 34.151 66.6453 35.2334C66.4883 39.3204 66.2864 43.4703 66.0397 47.5483C65.8693 50.27 65.6719 53.0635 65.4656 55.7896C65.4432 56.643 65.7661 57.5053 66.3447 58.1655C66.874 58.7853 67.6545 59.2568 68.4664 59.432C68.565 59.45 68.7041 59.4814 68.7983 59.4994C73.1178 59.953 77.4059 60.456 81.703 61.1656C77.3296 61.9156 72.9608 62.5085 68.5606 62.9666L68.2107 62.98H68.0358C67.9774 62.98 67.9191 62.98 67.8608 62.98L67.511 62.9576C63.7252 62.6657 60.6482 59.4904 60.3118 55.7043C60.2669 55.3495 60.1952 54.3839 60.1593 54.0021C59.7332 49.0124 59.4012 44.0182 59.1276 39.0195C59.0693 38.0135 58.9886 36.2574 58.9392 35.2738C58.9347 35.1436 58.9213 34.937 58.9258 34.8113C58.8226 29.7407 62.8281 25.3573 67.8653 24.9127C68.3004 24.8767 68.8342 24.8498 69.2468 24.8408C73.3331 24.724 77.9711 24.6342 82.0753 24.5983C82.5238 24.5938 82.6539 24.6028 83.0038 24.4725C83.4613 24.2749 83.8201 23.8437 83.9143 23.3587C83.9143 23.3138 83.9412 23.2689 83.9367 23.224C83.9367 23.2015 83.9367 23.1746 83.9367 23.1521L83.9412 23.1162V23.0982L83.9457 23.0892V23.0578C83.9681 18.616 84.0399 14.1203 84.1565 9.67402C84.17 9.35963 84.1879 9.09016 84.2104 8.79374C84.6724 3.90732 88.8797 -0.0224823 93.7958 -2.63084e-05H94.0111H94.0649H94.1008H94.1681L94.4372 0.0134473C100.313 0.273937 106.216 0.62425 112.083 1.09583L113.151 1.18116L113.684 1.22607C115.891 1.34733 117.986 2.29498 119.417 3.97468C120.942 5.7532 121.48 7.95389 121.126 10.2309C120.753 13.4466 120.354 16.6623 119.825 19.8735H119.82Z" fill="#414AB6"/>
<path d="M106.988 40.6543C101.915 43.2727 96.4648 46.8836 93.7152 52.035C92.5938 54.1279 91.9524 56.4409 91.634 58.7943C91.4186 60.4291 91.302 62.0953 91.2482 63.7436C91.1271 67.0626 91.4097 70.5837 91.6429 73.9161C91.7865 75.7935 91.9076 78.1513 92.0825 80.0421C92.1453 80.5946 92.2171 81.2054 92.4548 81.6096C92.8181 82.1934 93.5762 82.5842 94.2535 82.5213C99.4566 82.3461 104.767 82.2338 109.962 82.1485C110.859 82.1485 113.048 82.0991 113.909 82.0946H114.066C114.111 82.0856 114.151 82.0811 114.196 82.0811C114.254 82.0811 114.303 82.0542 114.362 82.0542C115.044 81.897 115.537 81.2727 115.55 80.5721C115.55 80.2936 115.55 79.7143 115.55 79.4268C115.55 75.7935 115.555 70.3995 115.631 66.7527C115.694 65.1493 116.152 63.5594 116.945 62.1672C118.681 59.0952 122.095 57.1011 125.62 57.137C130.204 57.2269 134.807 57.3706 139.391 57.5457C139.812 57.5682 140.229 57.5547 140.633 57.393C141.342 57.1011 141.912 56.4993 142.136 55.7537C142.145 55.7043 142.158 55.6549 142.172 55.6055L142.194 55.5337C142.212 55.4438 142.217 55.354 142.239 55.2642C142.239 55.2462 142.243 55.2462 142.248 55.2103C142.593 48.4331 143.028 41.6244 143.598 34.8607C143.598 34.8337 143.603 34.8023 143.603 34.7843L143.607 34.6676L143.625 34.4295L143.629 34.3711V34.3128L143.62 34.1915C143.62 34.1107 143.616 34.0298 143.616 33.949L143.585 33.7064C143.571 33.6256 143.571 33.5403 143.549 33.4639L143.49 33.2259L143.464 33.1046C143.401 32.9429 143.333 32.678 143.244 32.5163L143.141 32.2827L143.01 32.0627C142.391 30.9803 141.297 30.1584 140.068 29.844C139.862 29.7811 139.579 29.7362 139.364 29.7003C137.332 29.4802 135.304 29.2512 133.273 28.9727C135.3 28.6718 137.327 28.4293 139.355 28.1868L139.539 28.1778L139.911 28.1598C142.526 28.0969 144.948 29.6374 146.15 31.9594L146.236 32.148L146.406 32.5253C146.514 32.7813 146.594 33.0507 146.684 33.3112C146.738 33.5582 146.828 33.8861 146.863 34.1331C147.536 40.6274 147.976 47.189 148.398 53.7058C148.406 53.8135 148.483 55.1115 148.487 55.1878C148.716 60.3213 144.549 64.6373 139.404 64.7316C134.86 64.9472 130.299 65.1269 125.755 65.2661H125.719H125.706L125.679 65.2751C125.575 65.2885 125.477 65.311 125.378 65.3335C125.315 65.3469 125.257 65.3874 125.19 65.3963C124.625 65.6299 124.207 66.1554 124.118 66.7572C124.086 67.1569 124.212 72.2679 124.207 72.8068C124.221 74.6437 124.306 79.0406 124.284 80.8416C124.203 86.3253 119.578 90.8569 114.097 90.839C108.374 90.83 102.543 90.7671 96.8192 90.6548L94.1054 90.592C93.3609 90.5695 92.6208 90.4617 91.9076 90.2731C88.3551 89.3569 85.4171 86.2984 84.8474 82.656C84.686 81.7174 84.6546 80.9853 84.6411 80.1185C84.686 76.3728 84.7219 72.479 84.9282 68.7198C85.0897 65.9622 85.4216 63.1822 85.9957 60.474C86.7493 56.7149 88.0725 52.9737 90.4543 49.9197C94.4015 44.7952 100.762 41.9298 106.956 40.6678L106.988 40.6543Z" fill="#E52C77"/>
<path d="M130.693 24.6252C130.653 24.0908 130.604 23.5069 130.541 22.968C130.469 22.0563 130.173 21.1895 129.554 20.4394C128.02 18.5576 125.235 18.2971 123.378 19.8645C119.691 22.8781 115.847 25.3169 111.599 26.8349C110.572 27.1852 109.522 27.4906 108.459 27.7286C104.678 28.5281 100.524 28.573 96.5411 29.5745C95.0654 29.9338 93.6031 30.4458 92.2126 31.0611C83.6902 34.919 81.2501 43.2323 84.2375 51.7431C84.6815 44.9344 86.6865 38.6198 93.8767 36.7155C95.635 36.235 97.4561 36.0239 99.2772 35.9565C103.027 35.8218 107.369 36.1496 111.298 35.3951C111.881 35.2828 112.734 35.1122 113.294 34.9595C113.568 34.8876 114.012 34.7843 114.281 34.699C115.546 34.3442 116.887 33.8591 118.103 33.3606C118.39 33.2348 119.215 32.8756 119.48 32.7498C119.906 32.5387 120.404 32.3007 120.821 32.0851C121.283 31.8471 121.745 31.5911 122.198 31.3306C122.184 35.0987 121.853 38.8938 120.911 42.4732C120.121 45.3431 119.009 47.8896 116.963 49.9376C116.842 50.0499 116.771 50.1487 116.623 50.2565C114.375 52.0889 111.917 53.544 109.235 54.7701C105.158 56.5981 100.793 57.658 96.263 58.0038C104.162 60.6671 113.447 59.3063 120.592 55.0351C121.332 54.5501 122.05 53.9797 122.7 53.3824C128.025 48.3702 129.967 40.8474 130.622 33.8412C130.895 30.7692 130.909 27.7017 130.689 24.6297L130.693 24.6252Z" fill="#17BA7F"/>
<path d="M9.45985 103.257L18.4846 128.776L27.4645 103.257H36.9737V138.441H29.7072V128.821L30.4294 112.217L20.9426 138.437H15.9727L6.5129 112.239L7.23506 128.816V138.437H0V103.253H9.45985V103.257Z" fill="#22275E"/>
<path d="M52.5923 128.556L57.4187 112.293H64.9004L54.4 142.501L53.8213 143.88C52.2604 147.293 49.6857 149.005 46.0974 149.005C45.0837 149.005 44.052 148.852 43.0069 148.546V143.256L44.0699 143.278C45.3887 143.278 46.3755 143.076 47.0259 142.672C47.6762 142.268 48.1876 141.599 48.5599 140.664L49.3807 138.513L40.2349 112.293H47.739L52.5923 128.556Z" fill="#22275E"/>
<path d="M96.7111 138.441H89.4716V123.36H75.3514V138.441H68.1118V103.257H75.3514V117.517H89.4716V103.257H96.7111V138.441Z" fill="#22275E"/>
<path d="M114.595 138.926C110.764 138.926 107.647 137.75 105.243 135.396C102.838 133.043 101.636 129.912 101.636 125.996V125.318C101.636 122.691 102.143 120.342 103.157 118.271C104.171 116.201 105.606 114.606 107.467 113.488C109.324 112.37 111.446 111.808 113.828 111.808C117.398 111.808 120.211 112.936 122.265 115.19C124.315 117.445 125.342 120.643 125.342 124.783V127.635H108.714C108.939 129.342 109.62 130.712 110.755 131.745C111.89 132.778 113.325 133.29 115.061 133.29C117.748 133.29 119.847 132.315 121.359 130.366L124.786 134.206C123.741 135.688 122.323 136.847 120.538 137.673C118.753 138.504 116.775 138.917 114.599 138.917L114.595 138.926ZM113.796 117.44C112.415 117.44 111.289 117.912 110.428 118.851C109.567 119.789 109.015 121.132 108.773 122.879H118.475V122.322C118.443 120.768 118.026 119.569 117.219 118.716C116.411 117.862 115.272 117.44 113.792 117.44H113.796Z" fill="#22275E"/>
<path d="M144.427 138.441C144.104 137.812 143.871 137.031 143.728 136.097C142.037 137.983 139.843 138.926 137.139 138.926C134.582 138.926 132.46 138.185 130.778 136.703C129.096 135.221 128.257 133.353 128.257 131.098C128.257 128.327 129.284 126.198 131.334 124.716C133.384 123.234 136.349 122.484 140.229 122.47H143.441V120.97C143.441 119.762 143.131 118.797 142.512 118.069C141.893 117.346 140.915 116.982 139.579 116.982C138.403 116.982 137.484 117.265 136.816 117.827C136.147 118.392 135.815 119.165 135.815 120.149H128.84C128.84 118.635 129.307 117.234 130.24 115.945C131.173 114.656 132.492 113.645 134.196 112.913C135.901 112.181 137.816 111.813 139.942 111.813C143.158 111.813 145.715 112.621 147.603 114.243C149.492 115.859 150.438 118.136 150.438 121.069V132.405C150.456 134.884 150.801 136.761 151.474 138.037V138.45H144.427V138.441ZM138.659 133.582C139.686 133.582 140.637 133.353 141.507 132.895C142.378 132.436 143.019 131.821 143.436 131.044V126.548H140.83C137.336 126.548 135.479 127.757 135.255 130.173L135.232 130.582C135.232 131.453 135.537 132.167 136.147 132.733C136.757 133.299 137.596 133.577 138.659 133.577V133.582Z" fill="#22275E"/>
<path d="M163.155 138.441H156.157V101.321H163.155V138.441Z" fill="#22275E"/>
<path d="M177.252 105.866V112.293H181.72V117.418H177.252V130.469C177.252 131.435 177.436 132.131 177.808 132.549C178.176 132.966 178.885 133.177 179.93 133.177C180.701 133.177 181.388 133.124 181.98 133.007V138.297C180.612 138.715 179.203 138.926 177.754 138.926C172.861 138.926 170.367 136.452 170.273 131.507V117.418H166.46V112.293H170.273V105.866H177.248H177.252Z" fill="#22275E"/>
<path d="M192.408 115.145C194.256 112.922 196.584 111.808 199.383 111.808C205.049 111.808 207.919 115.105 208 121.693V138.441H201.025V121.887C201.025 120.387 200.702 119.282 200.061 118.563C199.415 117.845 198.347 117.49 196.849 117.49C194.804 117.49 193.324 118.28 192.408 119.857V138.441H185.434V101.321H192.408V115.145Z" fill="#22275E"/>
</g>
<defs>
<clipPath id="clip0_12_1000">
<rect width="208" height="149" fill="white"/>
</clipPath>
</defs>
</svg>
