<svg width="90" height="91" viewBox="0 0 90 91" fill="none" xmlns="http://www.w3.org/2000/svg">
<g clip-path="url(#clip0_12_1058)">
<path d="M60.8966 19.8736C60.3001 16.4469 59.8425 13.0156 59.4209 9.57533C59.2594 8.44355 58.6674 7.37913 57.7568 6.71444C57.0077 6.16202 56.0792 5.89704 55.1732 5.98237C54.1415 6.08118 52.0737 6.26083 51.0421 6.35065C45.8793 6.79079 40.7165 7.13212 35.5448 7.41057C35.4596 7.41956 35.2577 7.42405 35.177 7.42854C34.2978 7.53633 33.5398 8.23246 33.4052 9.10825C33.3693 9.27891 33.3873 9.45407 33.3873 9.62923C33.5398 14.1429 33.6743 18.7014 33.7192 23.2151C33.7057 24.2211 33.5577 25.2361 33.2572 26.1973C32.0641 30.1046 28.3905 33.0553 24.3132 33.3203C23.9992 33.3428 23.3937 33.3652 23.1873 33.3562C18.8992 33.3607 13.889 33.3023 9.60085 33.217C8.51088 33.2125 7.68107 34.1512 7.72144 35.2335C7.56445 39.3205 7.3626 43.4704 7.1159 47.5484C6.94545 50.2701 6.74809 53.0636 6.54176 55.7898C6.51933 56.6431 6.84229 57.5054 7.42091 58.1656C7.9502 58.7854 8.73067 59.257 9.54254 59.4321C9.64122 59.4501 9.78027 59.4815 9.87446 59.4995C14.194 59.9531 18.4821 60.4561 22.7791 61.1657C18.4058 61.9158 14.037 62.5086 9.63673 62.9667L9.28687 62.9802H9.11193C9.05362 62.9802 8.99531 62.9802 8.937 62.9802L8.58713 62.9577C4.8014 62.6658 1.72437 59.4905 1.38796 55.7044C1.34311 55.3496 1.27134 54.384 1.23545 54.0023C0.809333 49.0125 0.477414 44.0183 0.2038 39.0196C0.145489 38.0136 0.0647449 36.2575 0.0154048 35.274C0.0109193 35.1437 -0.00253653 34.9371 0.00194893 34.8114C-0.101217 29.7408 3.90431 25.3574 8.94149 24.9128C9.37658 24.8768 9.91035 24.8499 10.323 24.8409C14.4093 24.7241 19.0472 24.6343 23.1514 24.5984C23.6 24.5939 23.7301 24.6029 24.0799 24.4726C24.5374 24.275 24.8963 23.8439 24.9905 23.3588C24.9905 23.3139 25.0174 23.269 25.0129 23.2241C25.0129 23.2016 25.0129 23.1747 25.0129 23.1522L25.0174 23.1163V23.0983L25.0219 23.0893V23.0579C25.0443 18.6161 25.1161 14.1204 25.2327 9.67414C25.2461 9.35975 25.2641 9.09028 25.2865 8.79386C25.7485 3.90744 29.9559 -0.0223602 34.872 9.57619e-05H35.0873H35.1411H35.177H35.2443L35.5134 0.0135694C41.3893 0.274059 47.2922 0.624372 53.1592 1.09595L54.2267 1.18128L54.7605 1.22619C56.9674 1.34746 59.0621 2.2951 60.4929 3.97481C62.018 5.75332 62.5563 7.95401 62.2019 10.231C61.8296 13.4467 61.4304 16.6624 60.9011 19.8736H60.8966Z" fill="#414AB6"/>
<path d="M48.0639 40.6544C42.9908 43.2728 37.541 46.8837 34.7914 52.0351C33.67 54.128 33.0286 56.441 32.7101 58.7944C32.4948 60.4292 32.3782 62.0954 32.3244 63.7437C32.2033 67.0627 32.4859 70.5838 32.7191 73.9163C32.8626 75.7936 32.9837 78.1515 33.1587 80.0423C33.2215 80.5947 33.2932 81.2055 33.531 81.6097C33.8943 82.1935 34.6523 82.5843 35.3296 82.5214C40.5328 82.3462 45.8436 82.234 51.0377 82.1486C51.9348 82.1486 54.1237 82.0992 54.9849 82.0947H55.1419C55.1868 82.0858 55.2272 82.0813 55.272 82.0813C55.3303 82.0813 55.3797 82.0543 55.438 82.0543C56.1198 81.8971 56.6132 81.2728 56.6266 80.5722C56.6266 80.2938 56.6266 79.7144 56.6266 79.427C56.6266 75.7936 56.6311 70.3997 56.7074 66.7528C56.7702 65.1494 57.2277 63.5596 58.0216 62.1673C59.7575 59.0953 63.1709 57.1012 66.6965 57.1371C71.2806 57.227 75.8827 57.3707 80.4669 57.5458C80.8885 57.5683 81.3057 57.5548 81.7093 57.3931C82.4181 57.1012 82.9877 56.4994 83.212 55.7539C83.221 55.7045 83.2344 55.6551 83.2479 55.6056L83.2703 55.5338C83.2882 55.444 83.2927 55.3541 83.3151 55.2643C83.3151 55.2464 83.3196 55.2464 83.3241 55.2104C83.6695 48.4332 84.1046 41.6246 84.6742 34.8608C84.6742 34.8339 84.6787 34.8024 84.6787 34.7845L84.6832 34.6677L84.7012 34.4297L84.7056 34.3713V34.3129L84.6967 34.1916C84.6967 34.1108 84.6922 34.0299 84.6922 33.9491L84.6608 33.7066C84.6473 33.6257 84.6473 33.5404 84.6249 33.464L84.5666 33.226L84.5397 33.1047C84.4769 32.9431 84.4096 32.6781 84.3199 32.5164L84.2167 32.2829L84.0866 32.0628C83.4676 30.9804 82.3732 30.1585 81.1442 29.8441C80.9378 29.7813 80.6553 29.7363 80.44 29.7004C78.4081 29.4803 76.3806 29.2513 74.3487 28.9728C76.3761 28.6719 78.4036 28.4294 80.431 28.1869L80.6149 28.1779L80.9872 28.1599C83.6022 28.0971 86.0244 29.6375 87.2265 31.9595L87.3117 32.1481L87.4821 32.5254C87.5898 32.7814 87.6705 33.0509 87.7602 33.3113C87.8141 33.5584 87.9038 33.8862 87.9397 34.1332C88.6125 40.6275 89.0521 47.1891 89.4737 53.7059C89.4827 53.8137 89.5589 55.1116 89.5634 55.188C89.7922 60.3214 85.6252 64.6375 80.4803 64.7318C75.9366 64.9473 71.3748 65.127 66.8311 65.2662H66.7952H66.7817L66.7548 65.2752C66.6516 65.2887 66.553 65.3111 66.4543 65.3336C66.3915 65.3471 66.3332 65.3875 66.2659 65.3965C65.7007 65.63 65.2836 66.1555 65.1939 66.7573C65.1625 67.157 65.2881 72.268 65.2836 72.8069C65.297 74.6438 65.3823 79.0407 65.3598 80.8417C65.2791 86.3254 60.6546 90.8571 55.1733 90.8391C49.4499 90.8301 43.6188 90.7672 37.8953 90.655L35.1816 90.5921C34.437 90.5696 33.6969 90.4618 32.9837 90.2732C29.4312 89.357 26.4933 86.2985 25.9236 82.6561C25.7621 81.7175 25.7307 80.9854 25.7173 80.1186C25.7621 76.373 25.798 72.4791 26.0044 68.7199C26.1658 65.9624 26.4978 63.1823 27.0719 60.4741C27.8255 56.715 29.1487 52.9738 31.5305 49.9198C35.4777 44.7953 41.838 41.93 48.0325 40.6679L48.0639 40.6544Z" fill="#E52C77"/>
<path d="M71.7696 24.6253C71.7292 24.0909 71.6799 23.507 71.6171 22.9681C71.5453 22.0564 71.2493 21.1896 70.6303 20.4395C69.0962 18.5577 66.3108 18.2972 64.4538 19.8647C60.7667 22.8783 56.9227 25.317 52.675 26.835C51.6478 27.1853 50.5982 27.4907 49.5351 27.7288C45.7539 28.5282 41.6003 28.5731 37.6173 29.5746C36.1415 29.9339 34.6793 30.4459 33.2888 31.0612C24.7664 34.9192 22.3263 43.2324 25.3136 51.7432C25.7577 44.9345 27.7627 38.6199 34.9529 36.7156C36.7112 36.2351 38.5323 36.024 40.3534 35.9566C44.1032 35.8219 48.4452 36.1498 52.3744 35.3952C52.9575 35.283 53.8098 35.1123 54.3705 34.9596C54.6441 34.8877 55.0881 34.7844 55.3573 34.6991C56.6222 34.3443 57.9633 33.8592 59.1789 33.3607C59.466 33.235 60.2913 32.8757 60.5559 32.7499C60.982 32.5388 61.4799 32.3008 61.8971 32.0852C62.3591 31.8472 62.8211 31.5912 63.2741 31.3307C63.2607 35.0988 62.9287 38.8939 61.9868 42.4734C61.1973 45.3432 60.085 47.8898 58.0396 49.9377C57.9185 50.05 57.8467 50.1488 57.6987 50.2566C55.4515 52.089 52.9934 53.5442 50.3111 54.7703C46.2338 56.5982 41.8695 57.6581 37.3392 58.0039C45.2381 60.6672 54.523 59.3064 61.6683 55.0352C62.4084 54.5502 63.1261 53.9798 63.7765 53.3825C69.1007 48.3703 71.0429 40.8476 71.6978 33.8413C71.9714 30.7693 71.9849 27.7018 71.7651 24.6298L71.7696 24.6253Z" fill="#17BA7F"/>
</g>
<defs>
<clipPath id="clip0_12_1058">
<rect width="90" height="91" fill="white"/>
</clipPath>
</defs>
</svg>
