<svg width="140" height="101" viewBox="0 0 140 101" fill="none" xmlns="http://www.w3.org/2000/svg">
<path d="M124.336 97.4506C124.336 99.1561 99.1534 101 68.9801 101C38.8068 101 14.1932 99.4644 14.1932 97.759C14.1932 96.0535 124.336 95.7452 124.336 97.4506Z" fill="#D0DBFC"/>
<path d="M101.117 36.7209C101.117 36.7209 98.796 37.6807 95.6019 39.8235C95.0611 40.1854 94.4097 45.1822 94.4097 45.1822C94.4097 45.1822 93.8847 40.8273 93.5748 41.0696C91.516 42.6743 89.2137 44.7857 87.0063 47.3785C86.7596 47.6712 89.4794 51.0443 89.2358 51.3496C88.9639 51.6862 85.7286 48.9518 85.463 49.3011C82.1993 53.6025 73.6796 65.4181 72.4431 71.8969L81.1272 75.4589C91.4306 76.4784 94.7892 72.992 96.0668 70.3834C96.2913 69.9209 87.4016 68.7157 87.4016 68.7157C87.4016 68.7157 97.1673 68.0927 97.3729 67.6522C98.8909 64.3954 100.466 60.7265 101.557 57.4477C101.721 56.9568 91.4306 57.3848 91.5729 56.9128C91.6362 56.7051 102.139 55.588 102.196 55.3867C102.629 53.8385 102.914 52.4351 102.977 51.2772C102.999 50.8807 94.9346 51.3873 94.9346 51.3873C94.9346 51.3873 102.91 49.6 103.031 48.5365C103.423 44.9871 102.414 41.0192 101.114 36.7209H101.117Z" fill="#84C4E2"/>
<path d="M87.098 66.3306L94.6816 50.3143C94.6563 50.1256 94.6373 49.9368 94.6152 49.748C94.5393 49.0966 94.4697 48.4421 94.397 47.7908C94.2167 46.1828 94.1124 44.5686 93.9068 42.9639C93.6633 41.0413 93.5779 41.0696 93.5779 41.0696C93.8182 40.9563 94.0017 42.2873 94.0934 42.7688C94.2325 43.524 94.3084 44.1942 94.4286 44.9525C94.6658 46.4629 94.8935 47.9733 95.0706 49.4899L101.12 36.7178C101.12 36.7178 98.0433 44.2319 95.2002 50.7863C95.2192 50.78 95.2414 50.7738 95.2635 50.7643C95.4849 50.6825 100.643 50.4622 103.037 48.4641L102.97 48.7096C100.608 51.0318 95.1433 51.3496 94.9441 51.381C93.9827 53.59 93.6538 54.2696 92.6797 56.3842C92.7968 56.403 92.9549 56.3621 93.0656 56.3496C93.2806 56.3244 93.4957 56.2961 93.7107 56.2709C94.4697 56.1796 95.2287 56.0852 95.9909 55.994C97.7524 55.78 99.5202 55.6353 101.285 55.4465C101.696 55.4024 101.984 55.3993 101.984 55.3993C101.984 55.3993 100.241 55.7706 99.0933 55.9657C97.3634 56.2646 95.6303 56.5352 93.8941 56.7995C93.6506 56.8373 93.4071 56.875 93.1636 56.9097C92.9074 56.9474 92.6513 57.0009 92.4362 56.9002C90.077 61.9914 87.9392 66.1009 87.1011 66.318L87.098 66.3306Z" fill="#AEE4F4"/>
<path d="M97.376 67.649L86.3959 68.2878L86.2789 68.8605C86.2789 68.8605 94.8587 68.1651 97.376 67.6522V67.649Z" fill="#4E9DC4"/>
<path d="M87.0094 47.3785L92.8632 54.6787L92.1927 56.0632C92.1927 56.0632 86.8955 48.1809 87.0062 47.3817L87.0094 47.3785Z" fill="#AEE4F4"/>
<path d="M25.0026 28.0426C25.0026 28.0426 27.8836 29.5498 31.745 32.6807C32.3965 33.2093 31.3181 44.3484 31.3181 44.3484C31.3181 44.3484 33.8386 34.1722 34.2086 34.5215C36.7576 36.9066 39.5753 40.0123 42.1844 43.7725C42.3552 44.018 40.1731 47.3062 40.3407 47.5579C44.474 53.7221 50.331 58.5081 51.2165 67.7183C51.2165 67.7183 51.8236 73.3507 51.2038 72.9857C50.5808 72.6207 35.0625 85.0152 35.0625 85.0152C35.0625 85.0152 32.9879 81.6861 30.518 77.3658C30.1891 76.7899 36.4951 73.9171 36.1567 73.3129C35.9195 72.8881 29.038 74.7446 28.8008 74.3104C26.3087 69.795 23.7977 64.8454 22.8047 61.6075C22.6782 61.1985 29.3605 61.2205 29.2435 60.7926C29.1044 60.2797 22.0362 58.7693 22.0362 58.7693C21.2045 55.2356 20.689 51.123 20.8598 46.5038C20.8787 45.994 29.8539 47.8348 29.8539 47.8348C29.8539 47.8348 21.0464 43.6498 21.1191 42.9827C21.6219 38.4075 22.8174 33.4076 25.009 28.0457L25.0026 28.0426Z" fill="#F7AB61"/>
<path d="M25.0026 28.0426C25.0026 28.0426 27.8836 29.5498 31.745 32.6807C32.3965 33.2093 31.3181 44.3484 31.3181 44.3484C31.3181 44.3484 33.8386 34.1722 34.2086 34.5215C36.7576 36.9066 39.5754 40.0123 42.1844 43.7725C42.3583 44.0243 41.008 46.1514 41.1819 46.4094C45.3089 52.5705 50.331 58.5207 51.2165 67.7183C51.2165 67.7183 51.8237 73.3507 51.2038 72.9857C50.5808 72.6207 37.4059 64.0524 37.4059 64.0524L25.009 28.0457L25.0026 28.0426Z" fill="#FFC68D"/>
<path d="M25.0026 28.0426C25.0026 28.0426 34.2402 57.432 35.2427 60.2577C35.4925 60.9562 22.4504 58.8983 22.0267 58.7662C22.052 58.8071 35.0719 62.9952 35.4894 60.9562C37.9213 67.7718 38.4748 67.3344 39.5279 67.7088L24.9994 28.0395L25.0026 28.0426Z" fill="#FFE2CF"/>
<path d="M24.1361 44.9683C24.2405 44.9714 31.6059 48.5082 31.6059 48.5082L31.9601 49.3074L24.1361 44.9714V44.9683Z" fill="#FFE2CF"/>
<path d="M32.8708 38.3981L30.9797 45.5881L31.0714 46.4157L32.8708 38.3981Z" fill="#FFE2CF"/>
<path d="M50.2835 94.7634C48.25 96.686 41.4507 95.7011 36.3148 93.6841C35.1162 93.2153 33.6203 92.5451 31.9664 91.6294C33.0384 91.5696 39.784 90.8018 38.1522 80.8208C38.0794 80.3771 32.6526 86.0253 31.8367 91.557C29.6261 90.3172 27.3618 88.8509 23.9526 85.6319C23.1652 84.8893 20.5719 81.9284 19.0761 79.5527C20.0817 79.065 24.6357 76.5477 27.1815 69.8768C27.3396 69.4615 19.3892 72.0071 18.8958 79.2632C17.5581 77.0889 16.3753 74.6251 15.4487 71.8403C15.4582 71.8372 15.4708 71.8309 15.4835 71.8277C15.455 71.7491 15.4297 71.6704 15.4076 71.5918C15.3949 71.5446 15.3855 71.4974 15.3728 71.4502C15.3728 71.4911 15.3665 71.5257 15.3633 71.5666C14.8036 69.8391 14.3387 67.9857 13.9971 66.0034C14.4399 65.5377 15.9357 63.3854 14.4968 56.595C14.4082 56.1796 12.1534 59.7479 13.5765 65.1034C13.9117 67.3375 14.3988 69.4143 15.006 71.34C8.6462 66.403 5.82843 71.403 5.82843 71.403C9.41152 72.8252 14.481 71.8057 15.0502 71.4753C15.9958 74.4394 17.2229 77.0448 18.627 79.3356C18.6333 79.3387 19.1077 80.097 19.1899 80.2261C20.7079 82.542 22.3967 84.5212 24.1392 86.1983C24.1392 86.2046 24.1392 86.2109 24.1392 86.2172C24.1392 86.2172 24.1455 86.2172 24.1614 86.2172C24.2278 86.2801 24.2942 86.3431 24.3606 86.406C16.7675 84.7446 12.0364 87.8031 12.0364 87.8031C17.6972 91.4217 23.7186 87.6993 24.7085 86.7301C26.6123 88.4828 28.5509 89.8862 30.3661 91.0032C30.7298 91.1511 31.0651 91.3651 31.375 91.6105C33.225 92.6709 34.9011 93.423 36.2199 93.9421C40.0054 95.4273 43.4841 96.0693 46.109 96.0693C48.1899 96.0693 49.7332 95.6665 50.4764 94.9648L50.2898 94.7697L50.2835 94.7634Z" fill="#9D99E5"/>
<path d="M31.3687 91.6042C25.9576 89.3072 20.5466 92.6552 20.5466 92.6552C25.8501 95.7105 30.1353 92.9887 31.3592 91.7804C31.59 91.5822 31.3781 91.6168 31.3718 91.6042H31.3687Z" fill="#726AE4"/>
<path d="M22.3935 63.1871C22.5453 62.7844 16.1856 64.9524 15.3602 71.5697C15.3918 71.5823 15.4171 71.7554 15.4487 71.8403C16.5493 71.3495 20.047 69.3356 22.3967 63.1871H22.3935Z" fill="#726AE4"/>
<path d="M18.9591 79.8673C12.672 74.6345 8.43115 79.0964 8.43115 79.0964C12.068 80.8868 17.7889 80.591 19.1773 80.2229C19.1773 80.2229 18.9622 79.9019 18.9591 79.8705C18.9591 79.8705 18.9591 79.8673 18.9591 79.8642V79.8673Z" fill="#726AE4"/>
<path d="M30.4578 75.4023C30.3883 74.9743 25.537 80.8113 24.4523 86.1479C24.4934 86.1448 24.5535 86.1951 24.6199 86.2518C26.5616 85.956 31.9062 84.2285 30.461 75.4023H30.4578Z" fill="#726AE4"/>
<path d="M81.045 78.7377C82.7021 80.2827 88.2017 79.4457 92.3477 77.7843C93.3154 77.3973 94.5235 76.8466 95.858 76.0946C94.9884 76.0537 89.5236 75.4715 90.7854 67.3816C90.8423 67.0229 95.2698 71.5634 95.9624 76.0379C97.746 75.0216 99.5676 73.8196 102.31 71.1953C102.942 70.588 105.026 68.1777 106.221 66.2457C105.402 65.8555 101.702 63.8448 99.6024 58.4578C99.4728 58.1211 105.924 60.1381 106.367 66.0097C107.436 64.2413 108.378 62.24 109.112 59.9776C109.103 59.9776 109.093 59.9713 109.084 59.9682C109.106 59.9052 109.128 59.8423 109.144 59.7762C109.153 59.7385 109.163 59.7007 109.172 59.6629C109.172 59.6944 109.178 59.7259 109.182 59.7573C109.624 58.354 109.988 56.853 110.254 55.2451C109.893 54.8707 108.666 53.1369 109.795 47.6303C109.865 47.2936 111.712 50.1696 110.589 54.5119C110.33 56.3244 109.95 58.0078 109.469 59.5685C114.589 55.5346 116.901 59.5685 116.901 59.5685C114.008 60.7422 109.896 59.9461 109.435 59.6818C108.688 62.0858 107.708 64.2035 106.585 66.0663C106.579 66.0695 106.199 66.6862 106.133 66.79C104.919 68.6748 103.562 70.2859 102.161 71.6547C102.161 71.661 102.161 71.6641 102.161 71.6704C102.161 71.6704 102.155 71.6704 102.142 71.6704C102.088 71.7239 102.034 71.7743 101.981 71.8246C108.119 70.4338 111.968 72.885 111.968 72.885C107.404 75.8491 102.509 72.8693 101.702 72.0889C100.172 73.5206 98.6094 74.666 97.1452 75.5817C96.8511 75.7044 96.5822 75.8806 96.3324 76.0788C94.8429 76.9473 93.4893 77.5672 92.4236 77.9951C89.3655 79.2223 86.5572 79.7604 84.4288 79.7761C82.7464 79.7887 81.4909 79.4709 80.8868 78.9076L81.0386 78.7472L81.045 78.7377Z" fill="#F7AB61"/>
<path d="M96.4652 76.1417C96.6044 76.0631 96.7593 75.9876 96.9238 75.9844C97.0345 75.9844 97.0566 75.8491 96.9934 75.7925C97.0693 75.739 97.142 75.6886 97.2147 75.632C97.2242 75.6226 97.2337 75.6131 97.2369 75.6037C102.822 74.795 105.108 76.8592 105.108 76.8592C100.833 79.3639 97.3476 77.1864 96.3514 76.2141C96.3893 76.1921 96.4273 76.1669 96.4684 76.1449L96.4652 76.1417Z" fill="#FFCDA4"/>
<path d="M103.439 53.0078C103.312 52.6837 108.476 54.3986 109.182 59.7542C109.156 59.7668 109.137 59.9052 109.112 59.9744C108.217 59.5843 105.374 57.9732 103.435 53.0078H103.439Z" fill="#FFCDA4"/>
<path d="M106.316 66.4943C111.373 62.2212 114.833 65.8083 114.833 65.8083C111.898 67.2809 107.265 67.0732 106.139 66.7837C106.139 66.7837 106.31 66.5226 106.313 66.4974C106.313 66.4974 106.313 66.4974 106.313 66.4943H106.316Z" fill="#FFCDA4"/>
<path d="M96.9807 62.9449C97.0345 62.5987 100.997 67.2935 101.908 71.6106C101.876 71.6106 101.826 71.6484 101.775 71.6956C100.2 71.4659 95.8644 70.1003 96.9807 62.9449Z" fill="#FFCDA4"/>
<path d="M117.031 72.9857H84.5111C82.513 72.9857 80.8932 74.5974 80.8932 76.5854V94.0586C80.8932 96.0467 82.513 97.6583 84.5111 97.6583H117.031C119.029 97.6583 120.649 96.0467 120.649 94.0586V76.5854C120.649 74.5974 119.029 72.9857 117.031 72.9857Z" fill="#736BE5"/>
<path d="M113.201 73.0864H80.6813C78.6832 73.0864 77.0634 74.6981 77.0634 76.6862V94.1593C77.0634 96.1474 78.6832 97.759 80.6813 97.759H113.201C115.199 97.759 116.819 96.1474 116.819 94.1593V76.6862C116.819 74.6981 115.199 73.0864 113.201 73.0864Z" fill="#9D99E5"/>
<path d="M98.913 80.138H92.7968C88.8911 80.138 85.7097 76.9756 85.7097 73.0864C85.7097 69.1972 88.888 66.0349 92.7968 66.0349H98.913C102.819 66.0349 106 69.1972 106 73.0864C106 76.9756 102.822 80.138 98.913 80.138ZM92.7968 69.0399C90.5546 69.0399 88.7298 70.8555 88.7298 73.0864C88.7298 75.3174 90.5546 77.133 92.7968 77.133H98.913C101.155 77.133 102.98 75.3174 102.98 73.0864C102.98 70.8555 101.155 69.0399 98.913 69.0399H92.7968Z" fill="#9D99E5"/>
<path d="M77.0634 78.0046C77.0634 75.2324 79.3214 72.9857 82.1076 72.9857H113.698C116.484 72.9857 116.99 74.9775 116.816 78.0046H77.0602H77.0634Z" fill="#BDBDFF"/>
<path d="M102.411 85.3802H98.1951V81.8497C98.1951 81.1606 97.6322 80.6005 96.9396 80.6005C96.247 80.6005 95.6841 81.1606 95.6841 81.8497V85.3802H91.4685C90.7759 85.3802 90.213 85.9403 90.213 86.6294C90.213 87.3185 90.7759 87.8786 91.4685 87.8786H95.6841V92.7402C95.6841 93.4293 96.247 93.9894 96.9396 93.9894C97.6322 93.9894 98.1951 93.4293 98.1951 92.7402V87.8786H102.411C103.103 87.8786 103.666 87.3185 103.666 86.6294C103.666 85.9403 103.103 85.3802 102.411 85.3802Z" fill="white"/>
<path d="M79.3088 0H40.932C37.1664 0 34.1137 3.03734 34.1137 6.7841V90.9277C34.1137 94.6744 37.1664 97.7118 40.932 97.7118H79.3088C83.0744 97.7118 86.1271 94.6744 86.1271 90.9277V6.7841C86.1271 3.03734 83.0744 0 79.3088 0Z" fill="#0065AA"/>
<path d="M70.8586 5.07547H49.7016C48.4461 5.07547 47.4246 4.06226 47.4246 2.80991V1.32471H73.1356V2.80991C73.1356 4.06226 72.1173 5.07547 70.8586 5.07547Z" fill="#0065AA"/>
<path d="M114.333 16.589C113.615 9.63496 100.991 7.70923 88.8911 9.13465C76.7914 10.5601 76.3234 13.2913 76.6365 21.5008C76.7377 24.1975 77.484 26.334 78.6889 28.0206C77.9457 30.5442 74.9635 31.0634 75.3778 31.4599C77.5093 33.4957 81.2663 31.6266 82.1708 31.1295C88.0087 34.5404 97.2622 34.0401 103.938 33.1024C112.809 31.8563 115.121 24.2132 114.333 16.589Z" fill="#6F6FD8"/>
<path d="M90.1751 21.0037C90.1751 21.7085 89.5995 22.2812 88.8911 22.2812C88.1827 22.2812 87.6071 21.7085 87.6071 21.0037C87.6071 20.2988 88.1827 19.7261 88.8911 19.7261C89.5995 19.7261 90.1751 20.2988 90.1751 21.0037Z" fill="white"/>
<path d="M96.5159 21.0037C96.5159 21.7085 95.9403 22.2812 95.2319 22.2812C94.5235 22.2812 93.9479 21.7085 93.9479 21.0037C93.9479 20.2988 94.5235 19.7261 95.2319 19.7261C95.9403 19.7261 96.5159 20.2988 96.5159 21.0037Z" fill="white"/>
<path d="M102.616 21.0037C102.616 21.7085 102.041 22.2812 101.332 22.2812C100.624 22.2812 100.048 21.7085 100.048 21.0037C100.048 20.2988 100.624 19.7261 101.332 19.7261C102.041 19.7261 102.616 20.2988 102.616 21.0037Z" fill="white"/>
<path d="M56.0582 40.0375C56.1878 39.833 61.1023 42.2905 66.624 39.0778C72.1457 35.8682 68.92 69.666 68.92 69.666L68.4709 87.2084L67.8448 95.6791H54.088L51.2639 69.0178C51.2639 69.0178 54.1385 43.0614 56.0582 40.0375Z" fill="#5DCEC1"/>
<path d="M80.9026 45.0249C78.6541 43.1023 68.3128 39.1974 68.3128 39.1974L66.624 42.1993C66.624 42.1993 67.1711 79.4268 66.8897 87.0951V95.6791H79.5111L79.5744 76.2928C83.2239 75.3709 86.029 73.8416 87.5723 72.1613C89.3212 70.2545 89.7449 69.1815 89.7449 66.6453C89.7449 64.1091 83.1543 46.9475 80.9058 45.0249H80.9026Z" fill="white"/>
<path d="M54.9229 72.7906C55.0431 72.5986 55.1063 72.4948 55.1063 72.4948V39.5309C55.1063 39.5309 44.7618 43.4358 42.5165 45.3584C40.2679 47.281 33.7342 65.0562 33.671 67.5892C33.4243 77.6427 42.2129 90.3267 42.2129 90.3267C42.2129 90.3267 42.5133 90.2008 43.0351 89.8358C42.8643 92.1769 42.5734 95.6791 42.5734 95.6791H56.2859C56.2859 95.6791 56.3302 85.2606 56.2859 84.7855C56.2574 84.5023 55.5206 78.014 54.926 72.7937L54.9229 72.7906Z" fill="white"/>
<path d="M76.9243 63.8196L74.6125 65.1821C74.5587 65.2136 74.4923 65.2136 74.4386 65.1821L71.9971 63.8165C71.9434 63.785 71.9086 63.7284 71.9086 63.6654V58.5711C71.9086 58.4767 71.9845 58.398 72.0825 58.398H76.8357C76.9306 58.398 77.0097 58.4735 77.0097 58.5711V63.6686C77.0097 63.7284 76.978 63.785 76.9243 63.8165V63.8196Z" fill="#D5E1ED"/>
<path d="M76.9243 63.8196L74.6125 65.1821C74.5587 65.2136 74.4923 65.2136 74.4386 65.1821L71.9971 63.8165C71.9434 63.785 71.9086 63.7284 71.9086 63.6654V59.6C71.9086 59.5056 71.9845 59.4269 72.0825 59.4269H76.8357C76.9306 59.4269 77.0097 59.5025 77.0097 59.6V63.6686C77.0097 63.7284 76.978 63.785 76.9243 63.8165V63.8196Z" fill="#B8DDFF"/>
<g opacity="0.5">
<path d="M66.8897 87.4318V36.3339C66.8897 36.3339 67.323 37.1269 68.9137 38.7316C70.8997 40.736 72.6043 43.7599 72.6043 43.7599L69.0149 43.0677L73.6764 47.7341L70.1692 68.2469L67.6867 68.615L69.2584 73.5804L66.8897 87.4318Z" fill="#8FA7D7"/>
</g>
<g opacity="0.5">
<path d="M53.525 38.697C51.539 40.7014 49.8344 43.7285 49.8344 43.7285L53.4238 43.0362L48.7623 47.7026L56.2827 86.3871L55.549 36.2993C55.549 36.2993 55.1158 37.0923 53.525 38.697Z" fill="#8FA7D7"/>
</g>
<path d="M66.8897 85.289L66.1086 35.9375C66.1086 35.9375 66.915 36.2805 68.5057 37.8853C70.4918 39.8896 71.8232 43.3635 71.8232 43.3635L68.2338 42.6713L72.8953 47.3377L69.5557 68.442L67.8448 68.8353L69.0971 71.3369L66.8897 85.2858V85.289Z" fill="white"/>
<path d="M56.2827 84.7855V35.9375C56.2827 35.9375 55.4763 36.2805 53.8856 37.8853C51.8995 39.8896 50.5681 43.3635 50.5681 43.3635L54.1575 42.6713L49.496 47.3377L56.2827 84.7824V84.7855Z" fill="white"/>
<path d="M61.8645 88.7722C58.7337 88.7722 56.3397 88.3034 56.3049 88.2971V88.0108C56.3586 88.0202 61.8108 89.0932 66.8897 87.9982V88.2845C65.1693 88.6558 63.4426 88.7722 61.8645 88.7722Z" fill="#38A595"/>
<path d="M61.1719 44.5623C58.3447 44.5623 56.3143 43.5806 56.2827 43.5649V43.2187C56.3302 43.2439 61.3395 45.6102 66.2192 43.0048L66.2256 43.3383C64.4451 44.2886 62.7279 44.5623 61.1719 44.5623Z" fill="#38A595"/>
<path opacity="0.5" d="M38.225 67.605C38.225 67.605 41.9599 68.3193 43.9016 70.2513C43.9016 70.2513 39.063 67.8441 38.225 67.605Z" fill="#8FA7D7"/>
<path d="M48.1235 84.1656L48.9078 85.1096C48.9078 85.1096 47.3329 88.9453 45.584 90.9686L44.1641 89.0051C44.1641 89.0051 46.3462 87.35 48.1235 84.1625V84.1656Z" fill="#FFCCA9"/>
<path opacity="0.5" d="M42.6461 67.605C42.7347 67.7529 43.9902 68.9423 44.4076 70.1002L42.4374 67.8724L42.6461 67.605Z" fill="#8FA7D7"/>
<path opacity="0.5" d="M46.6182 54.707C46.6087 54.5277 45.4702 69.4898 44.9832 71.447L48.7623 82.9448C48.7623 82.9448 46.7668 87.4318 43.0319 89.839C43.0319 89.839 45.4228 89.4834 49.1861 84.3135C49.1861 84.3135 47.3044 89.6628 44.6448 91.922C44.6448 91.922 48.8256 89.4551 50.0526 81.9662L46.109 71.4502C46.109 71.4502 46.7953 58.0393 46.6182 54.7102V54.707Z" fill="#8FA7D7"/>
<path opacity="0.5" d="M79.5712 76.2928L77.7528 76.8151L78.0311 78.4356L79.5712 77.8441V76.2928Z" fill="#8FA7D7"/>
<path opacity="0.5" d="M79.1348 65.0657L77.7528 53.7977L78.1829 65.4244C73.5435 67.1771 68.5468 69.2696 68.5468 69.2696C68.5468 69.2696 71.2033 68.5899 74.4607 67.7246C77.7212 66.8593 83.7805 63.4735 83.7805 63.4735C82.544 63.8354 80.8931 64.4143 79.1348 65.0657Z" fill="#8FA7D7"/>
<path opacity="0.1" d="M85.5484 54.0809C85.5484 54.0809 88.4673 61.9034 88.499 66.9788C88.5116 68.8668 87.4269 70.4275 86.6458 70.9908C79.04 76.4911 69.6664 76.6861 69.6664 76.6861C69.6664 76.6861 69.5905 77.9448 69.4102 78.1839C69.4102 78.1839 86.0069 77.0889 89.1789 69.9398C89.1789 69.9398 89.9 68.8007 89.7355 67.0103C89.4256 63.634 87.5407 58.8952 85.5452 54.0809H85.5484Z" fill="#8FA7D7"/>
<path opacity="0.1" d="M39.3255 51.208C39.4425 50.9091 34.5944 63.1872 34.6387 67.605C34.7272 76.8812 41.6151 88.5866 43.0319 89.8358L42.2097 90.3267C42.2097 90.3267 33.0701 76.8183 33.6678 67.5893C33.7848 65.7642 34.0093 64.9587 39.3223 51.2049L39.3255 51.208Z" fill="#8FA7D7"/>
<path d="M69.4577 78.1115C69.9953 72.671 68.4235 69.3199 68.607 69.2381C70.3811 68.442 74.7928 66.7176 78.3442 65.3457L78.496 57.3344L60.3465 56.6044L59.9354 83.2783L78.0185 82.5451L78.1292 76.7239C73.6606 77.7623 69.4577 78.1115 69.4577 78.1115Z" fill="#AE376D"/>
<path d="M72.3956 57.089L72.4019 56.7649L67.4811 56.4849L67.4716 56.8908L72.3956 57.089Z" fill="#A1B5BF"/>
<path d="M68.1072 57.432C68.1072 57.4886 68.0598 57.5327 68.006 57.5327C67.9523 57.5327 67.9048 57.4855 67.9048 57.432C67.9048 57.3785 67.9523 57.3313 68.006 57.3313C68.0598 57.3313 68.1072 57.3785 68.1072 57.432Z" fill="#A1B5BF"/>
<path d="M72.0097 57.5956C72.0097 57.6302 71.9813 57.6585 71.9465 57.6585C71.9117 57.6585 71.8832 57.6302 71.8832 57.5956C71.8832 57.561 71.9117 57.5327 71.9465 57.5327C71.9813 57.5327 72.0097 57.561 72.0097 57.5956Z" fill="#A1B5BF"/>
<path d="M69.1319 29.509C68.6164 31.3623 67.7024 32.7846 67.304 32.6745C67.304 32.6745 67.5823 31.4945 67.9554 29.6065C68.3887 27.4165 68.4488 25.8715 69.3501 25.9533C69.758 25.9911 69.6474 27.6556 69.1319 29.509Z" fill="#F0BA92"/>
<g opacity="0.6">
<path d="M68.4393 28.7412C67.9681 30.6071 67.7024 32.7846 67.304 32.6744C67.304 32.6744 67.6993 30.991 68.0724 29.103C68.5057 26.913 68.4614 26.1547 69.3596 26.2396C69.3596 26.2396 69.0085 26.4756 68.4393 28.7443V28.7412Z" fill="#D88D64"/>
</g>
<path d="M53.3258 29.5089C53.8413 31.3623 54.7015 32.794 55.0968 32.687C55.0968 32.687 54.6762 31.1578 54.4263 29.5498C54.0816 27.3441 54.0089 25.8714 53.1076 25.9533C52.6996 25.991 52.8103 27.6556 53.3258 29.5089Z" fill="#F0BA92"/>
<g opacity="0.6">
<path d="M53.7401 28.5398C54.2113 30.4057 54.7015 32.7972 55.0968 32.687C55.0968 32.687 54.6762 30.7645 54.303 28.8765C53.8698 26.6864 53.9425 26.1673 53.0412 26.2491C53.0412 26.2491 53.1677 26.2711 53.7401 28.5367V28.5398Z" fill="#D88D64"/>
</g>
<path d="M66.1781 40.283C66.1781 40.283 65.495 42.0734 61.1972 42.0734C56.8994 42.0734 56.2827 40.39 56.2827 40.39V34.9495H66.1117L66.1813 40.2798L66.1781 40.283Z" fill="#F0BA92"/>
<g opacity="0.6">
<path d="M66.1149 36.3339C65.2262 38.1779 61.757 39.6284 61.194 39.6284C60.6311 39.6284 57.6837 38.5145 56.2795 36.3654V33.5272H66.1085L66.1149 36.3339Z" fill="#D88D64"/>
</g>
<path d="M67.304 32.6745C65.6658 38.03 61.1941 38.1181 61.1941 38.1181C61.1941 38.1181 56.4693 38.1055 55.0589 32.5454C54.1291 28.8765 51.8869 23.2598 54.5718 19.0968C56.093 16.74 67.1459 15.7992 68.4488 19.0968C69.7518 22.3945 68.2622 29.5341 67.3008 32.6745H67.304Z" fill="#FFCCA9"/>
<path d="M63.5976 32.4762C63.7778 32.6273 63.2212 34.5624 61.1972 34.5845C59.48 34.6034 58.6198 32.8475 58.7748 32.5864C58.9677 32.2623 59.6508 32.4825 61.1277 32.4825C62.6045 32.4825 63.4015 32.3158 63.5976 32.4794V32.4762Z" fill="white"/>
<path d="M61.1719 34.682C60.0745 34.682 59.2713 33.9709 58.8823 33.3006C58.7273 33.0332 58.5945 32.6933 58.6894 32.5329C58.8475 32.2686 59.2143 32.2906 59.8785 32.3315C60.2105 32.3535 60.6216 32.3787 61.1276 32.3787C61.7317 32.3787 62.2124 32.3504 62.6014 32.3283C63.2086 32.2937 63.5153 32.2748 63.6608 32.3976C63.7999 32.514 63.6924 32.8633 63.6418 33.008C63.5438 33.2849 62.9587 34.6631 61.1972 34.682C61.1877 34.682 61.1814 34.682 61.1719 34.682ZM59.3124 32.5045C59.072 32.5045 58.9202 32.5329 58.8601 32.6336C58.838 32.6808 58.8823 32.9388 59.1163 33.3038C59.2966 33.5807 59.9733 34.4838 61.1688 34.4838C61.1782 34.4838 61.1846 34.4838 61.1941 34.4838C62.3642 34.4712 62.9682 33.7947 63.2275 33.395C63.4837 32.9954 63.5501 32.6304 63.5248 32.5486C63.4268 32.4857 63.0662 32.5045 62.614 32.5297C62.225 32.5517 61.738 32.5801 61.1276 32.5801C60.6153 32.5801 60.201 32.5549 59.8658 32.5329C59.6476 32.5203 59.4642 32.5077 59.3124 32.5077V32.5045Z" fill="#D3976E"/>
<path d="M61.2004 30.84C60.9632 30.6701 60.5963 30.2893 60.8082 29.66C60.9917 29.1188 61.017 28.0772 61.017 28.0678H61.2162C61.2162 28.115 61.1909 29.1534 60.9948 29.7229C60.8304 30.2044 61.077 30.5064 61.3142 30.6764L61.1972 30.84H61.2004Z" fill="#D88D64"/>
<path d="M68.9611 70.7548L67.1079 71.0348C64.7424 71.2393 63.8664 69.4269 61.776 69.6944C59.6856 69.9618 59.9354 70.7894 59.9354 70.7894C58.5502 70.8271 58.9139 72.734 58.9139 72.734C58.2593 73.7031 58.9392 74.8233 58.9392 74.8233C58.4617 75.4936 59.0974 76.5099 59.0974 76.5099C59.2744 77.6144 60.6217 78.5269 62.0701 78.6811C62.1175 78.6874 62.1681 78.6905 62.2187 78.6937C62.2693 78.6968 62.3231 78.7 62.3737 78.7031C62.4274 78.7031 62.4844 78.7031 62.5381 78.7031C62.614 78.7031 62.6899 78.7 62.769 78.6937C62.7753 78.6937 62.7785 78.6937 62.7848 78.6937C62.7848 78.6937 62.7943 78.6937 62.7975 78.6937C62.8639 78.6874 62.9271 78.6842 62.9935 78.6748C64.7424 78.4388 69.5588 76.4973 69.5588 76.4973C69.6347 72.756 68.9611 70.7579 68.9611 70.7579V70.7548Z" fill="#FFCCA9"/>
<path d="M59.9354 70.7862C59.9354 70.7862 61.134 71.0191 61.7854 71.0631C62.4338 71.1072 63.9423 71.3558 64.2965 71.4407C64.2965 71.4407 62.3452 71.2771 61.7728 71.2425C61.3364 71.2142 59.7551 70.802 59.9354 70.7831V70.7862Z" fill="#D88D64"/>
<path d="M60.3118 73.2626C60.3118 73.2626 59.4294 72.9039 59.1733 72.5546C58.9139 72.2053 58.9044 71.8089 58.8981 71.834C58.8191 72.1707 58.9171 72.734 58.9171 72.734L60.3118 73.2626Z" fill="#D88D64"/>
<path d="M60.3465 75.3425C60.3465 75.3425 59.5085 74.9744 59.1669 74.7038C58.7842 74.4017 58.6483 73.9328 58.6514 73.958C58.6957 74.4174 58.9519 74.8139 58.9519 74.8139L60.3465 75.3425Z" fill="#D88D64"/>
<path d="M60.5046 77.0322C60.5046 77.0322 59.6666 76.6641 59.325 76.3935C58.9424 76.0914 58.7716 75.5659 58.7748 75.5942C58.819 76.0536 59.11 76.5036 59.11 76.5036L60.5046 77.0322Z" fill="#D88D64"/>
<path d="M60.1093 70.2985C60.1093 70.2985 59.8974 70.783 60.2801 70.8491L60.3433 70.9372L59.9354 70.7862C59.9354 70.7862 59.8974 70.5093 60.1093 70.2985Z" fill="#D88D64"/>
<path d="M56.7287 57.5295C56.618 51.8908 55.7704 47.6114 53.0633 47.6114C50.3562 47.6114 49.4897 52.0324 49.4043 57.8001L49.398 58.1053C49.398 59.2255 49.9957 59.5024 50.761 59.622C51.0393 59.6661 51.3303 59.6818 51.6023 59.6912C51.675 59.8517 51.8331 59.965 52.0197 59.965C52.2727 59.965 52.4783 59.7605 52.4783 59.5087V59.1374C52.4783 58.8857 52.2727 58.6812 52.0197 58.6812C51.7889 58.6812 51.6054 58.8542 51.5738 59.0745C50.9634 59.043 50.2139 58.914 49.9704 58.4672C49.7332 58.0298 49.8724 57.1016 49.8914 56.4754C50.0526 51.6831 50.8338 48.0802 53.0697 48.0802C55.3055 48.0802 56.0835 51.6737 56.248 56.4565C56.2669 57.0575 56.3744 57.9386 56.1467 58.3854C55.9412 58.7913 55.3941 58.9707 54.847 59.043C54.7869 58.8291 54.5813 58.6812 54.3505 58.7095C54.0975 58.741 53.9204 58.9675 53.9488 59.2161L53.9931 59.5874C54.0247 59.8391 54.2524 60.0153 54.5023 59.987C54.692 59.965 54.8438 59.8265 54.8881 59.6535C55.7641 59.5339 56.7539 59.1469 56.7223 58.0047L56.716 57.5547C56.716 57.5547 56.7192 57.5421 56.7223 57.5327L56.7287 57.5295Z" fill="#383F47"/>
<path d="M53.1139 47.8442H52.6649V42.9607L53.1139 42.8757V47.8442Z" fill="#383F47"/>
<path d="M73.6037 51.208C73.3728 44.8676 71.3393 41.6202 70.0332 39.8235C68.7967 38.1181 68.5089 37.8947 68.5089 37.8947C68.7208 37.9922 73.7238 40.4245 74.1192 51.1891L73.6037 51.208Z" fill="#383F47"/>
<path d="M73.8946 51.3276C73.5467 44.7354 71.9655 41.85 70.6626 40.0533C69.426 38.3478 68.5057 37.8853 68.5057 37.8853C68.7176 37.9828 73.727 40.6165 74.1223 51.3842L73.8946 51.3276Z" fill="#1A2026"/>
<path d="M76.0925 53.1463C76.0925 54.3515 75.1121 55.3269 73.9009 55.3269C72.6897 55.3269 71.7093 54.3515 71.7093 53.1463C71.7093 51.9411 72.6897 50.9657 73.9009 50.9657C75.1121 50.9657 76.0925 51.9411 76.0925 53.1463Z" fill="#BCBCBC"/>
<path d="M73.9009 55.3898C72.658 55.3898 71.6461 54.3829 71.6461 53.1463C71.6461 51.9097 72.658 50.9028 73.9009 50.9028C75.1438 50.9028 76.1558 51.9097 76.1558 53.1463C76.1558 54.3829 75.1438 55.3898 73.9009 55.3898ZM73.9009 51.0286C72.7276 51.0286 71.7726 51.9789 71.7726 53.1463C71.7726 54.3137 72.7276 55.264 73.9009 55.264C75.0742 55.264 76.0293 54.3137 76.0293 53.1463C76.0293 51.9789 75.0742 51.0286 73.9009 51.0286Z" fill="#444444"/>
<g opacity="0.3">
<path d="M74.9888 55.1192L74.4354 53.9613L74.8275 52.8946L76.0356 52.3785C76.0356 52.3785 76.7408 53.9204 74.9888 55.1192Z" fill="white"/>
</g>
<path d="M74.8845 53.3068C74.8845 53.8763 74.4449 54.3357 73.9009 54.3357C73.357 54.3357 72.9174 53.8763 72.9174 53.3068C72.9174 52.7372 73.357 52.2778 73.9009 52.2778C74.4449 52.2778 74.8845 52.7372 74.8845 53.3068Z" fill="#635B53"/>
<g opacity="0.4">
<path d="M73.5531 50.8902L73.6732 52.2117L72.9364 53.0771L71.6239 53.1431C71.6239 53.1431 71.4943 51.4094 73.5531 50.887V50.8902Z" fill="white"/>
</g>
<path d="M74.7769 53.1463C74.7769 53.6277 74.3848 54.0179 73.9009 54.0179C73.417 54.0179 73.0249 53.6277 73.0249 53.1463C73.0249 52.6648 73.417 52.2747 73.9009 52.2747C74.3848 52.2747 74.7769 52.6648 74.7769 53.1463Z" fill="#D3D3D3"/>
<path d="M73.9009 54.0808C73.3823 54.0808 72.9617 53.6623 72.9617 53.1463C72.9617 52.6302 73.3823 52.2117 73.9009 52.2117C74.4196 52.2117 74.8402 52.6302 74.8402 53.1463C74.8402 53.6623 74.4196 54.0808 73.9009 54.0808ZM73.9009 52.3376C73.4519 52.3376 73.0882 52.6995 73.0882 53.1463C73.0882 53.5931 73.4519 53.955 73.9009 53.955C74.35 53.955 74.7137 53.5931 74.7137 53.1463C74.7137 52.6995 74.35 52.3376 73.9009 52.3376Z" fill="#A8A6A0"/>
<path d="M74.2425 53.2501C74.2425 53.4389 74.0875 53.5931 73.8977 53.5931C73.708 53.5931 73.553 53.4389 73.553 53.2501C73.553 53.0613 73.708 52.9072 73.8977 52.9072C74.0875 52.9072 74.2425 53.0613 74.2425 53.2501Z" fill="#BABABA"/>
<path d="M73.8977 53.4893C74.0881 53.4893 74.2425 53.3357 74.2425 53.1463C74.2425 52.9569 74.0881 52.8033 73.8977 52.8033C73.7074 52.8033 73.553 52.9569 73.553 53.1463C73.553 53.3357 73.7074 53.4893 73.8977 53.4893Z" fill="white"/>
<path d="M51.9659 58.87H51.8711C51.7925 58.87 51.7288 58.9334 51.7288 59.0116V59.6095C51.7288 59.6877 51.7925 59.751 51.8711 59.751H51.9659C52.0445 59.751 52.1083 59.6877 52.1083 59.6095V59.0116C52.1083 58.9334 52.0445 58.87 51.9659 58.87Z" fill="#AAA9A2"/>
<path d="M54.4554 58.864L54.3609 58.8729C54.2827 58.8803 54.2252 58.9493 54.2327 59.0272L54.2893 59.6224C54.2967 59.7002 54.3662 59.7574 54.4444 59.75L54.5389 59.7411C54.6171 59.7337 54.6745 59.6646 54.6671 59.5868L54.6105 58.9916C54.6031 58.9137 54.5336 58.8566 54.4554 58.864Z" fill="#AAA9A2"/>
<g opacity="0.4">
<path d="M73.6764 52.4006C73.1704 52.5673 73.1356 53.033 73.1356 53.033L73.629 53.0677L73.7586 52.9386L73.6764 52.4006Z" fill="white"/>
</g>
<g opacity="0.4">
<path d="M74.369 53.7851C74.7864 53.4547 74.6568 53.0079 74.6568 53.0079L74.1824 53.1432L74.1065 53.3099L74.3722 53.7851H74.369Z" fill="white"/>
</g>
<path d="M54.069 28.952C54.069 28.952 53.1234 25.2264 52.9558 23.3447C52.7882 21.4631 52.589 18.9363 54.7205 18.0742C56.852 17.2151 56.1974 19.8394 56.1974 19.8394C56.1974 19.8394 54.5118 20.9659 54.1734 23.7916C53.9899 25.3271 54.069 28.952 54.069 28.952Z" fill="#2A445D"/>
<path d="M68.2338 28.8954C68.2338 28.8954 69.2837 25.2264 69.4513 23.3447C69.6189 21.4631 69.8182 18.9363 67.6867 18.0742C65.5551 17.212 66.2098 19.8394 66.2098 19.8394C66.2098 19.8394 67.8954 20.9659 68.2338 23.7916C68.4172 25.3271 68.2338 28.8954 68.2338 28.8954Z" fill="#2A445D"/>
<path d="M66.4944 20.7456C66.4944 20.7456 63.898 21.1578 62.1586 20.3428C61.6494 20.1037 59.1764 21.1515 58.041 20.9407C55.8653 20.5348 54.9102 18.7727 54.8659 18.5933C54.7394 18.0647 54.2208 17.3064 55.7925 16.1327C57.9683 14.509 60.6533 14.9023 61.1023 14.4272C61.5514 13.9521 62.0036 13.6626 62.8733 13.7475C65.2041 13.9804 65.3179 15.3397 66.6303 15.5443C68.3381 15.8086 68.9137 16.4945 69.0243 17.9199C69.2362 20.6323 66.4975 20.7425 66.4975 20.7425L66.4944 20.7456Z" fill="#2A445D"/>
<path d="M61.5514 14.0654C61.5514 14.0654 60.8209 14.5877 58.9866 16.7117C57.1524 18.8356 56.1973 18.7066 55.9918 18.7412C55.9918 18.7412 57.5762 19.0118 59.2491 16.8218C60.9252 14.6318 61.5514 14.0654 61.5514 14.0654Z" fill="#1F384C"/>
<path d="M64.4293 20.6733C64.4293 20.6733 67.4905 21.032 68.8251 19.4429C68.8251 19.4429 68.5437 21.1075 64.4988 20.7016L64.4293 20.6733Z" fill="#1F384C"/>
<path d="M59.3946 20.7204C55.7862 21.2207 54.7489 18.2598 54.7679 18.3133C55.3371 20.11 56.7729 20.8022 57.8229 21.0728C58.1391 21.1578 58.4522 21.2113 58.7621 21.2333C58.9329 21.2459 59.0372 21.2459 59.0372 21.2459C59.0372 21.2459 59.0404 21.2459 59.0436 21.2459C62.4938 21.2774 65.2863 17.6462 65.2863 17.6462C62.9461 19.6506 60.8683 20.4341 59.3946 20.7236V20.7204Z" fill="#1F384C"/>
<mask id="mask0_14_2112" style="mask-type:luminance" maskUnits="userSpaceOnUse" x="57" y="25" width="4" height="4">
<path d="M59.6191 26.2585C60.2137 26.8501 60.2137 27.8129 59.6191 28.4076C59.0246 28.9992 58.0569 28.9992 57.4592 28.4076C56.8646 27.8161 56.8646 26.8532 57.4592 26.2585C58.0537 25.6669 59.0214 25.6669 59.6191 26.2585Z" fill="white"/>
</mask>
<g mask="url(#mask0_14_2112)">
<path d="M59.0214 28.9991L60.2137 27.8129V28.9991H59.0214Z" fill="white"/>
<path d="M57.4876 28.9992L56.8646 28.3761V26.85L58.0569 25.6638H59.5907L60.2137 26.2868V27.8129L59.0214 28.9992H57.4876Z" fill="white"/>
<path d="M58.0569 25.6638L56.8646 26.85V25.6638H58.0569Z" fill="white"/>
</g>
<mask id="mask1_14_2112" style="mask-type:luminance" maskUnits="userSpaceOnUse" x="62" y="25" width="4" height="4">
<path d="M65.0618 26.3623C65.6563 26.9539 65.6563 27.9168 65.0618 28.5115C64.4672 29.103 63.4995 29.103 62.9018 28.5115C62.3041 27.9199 62.3073 26.957 62.9018 26.3623C63.4964 25.7676 64.4641 25.7708 65.0618 26.3623Z" fill="white"/>
</mask>
<g mask="url(#mask1_14_2112)">
<path d="M64.4641 29.103L65.6563 27.9167V29.103H64.4641Z" fill="white"/>
<path d="M62.9303 29.103L62.3073 28.4831V26.957L63.4995 25.7708H65.0333L65.6563 26.3906V27.9167L64.4641 29.103H62.9303Z" fill="white"/>
<path d="M63.4995 25.7708L62.3073 26.957V25.7708H63.4995Z" fill="white"/>
</g>
<path d="M65.552 25.2106C65.1124 24.9086 64.6096 24.7733 64.0719 24.8519C63.8442 24.8865 63.6576 24.6726 63.7082 24.4492C63.7335 24.339 63.8158 24.2446 63.9233 24.21C64.6665 23.9803 65.4128 24.103 65.9852 24.6915C66.0611 24.7701 66.0864 24.8834 66.0611 24.9904L66.0548 25.0124C66.001 25.2358 65.7386 25.3397 65.5488 25.2106H65.552Z" fill="#2A445D"/>
<path d="M63.9834 27.9073C64.1964 27.9073 64.3692 27.6889 64.3692 27.4195C64.3692 27.1502 64.1964 26.9318 63.9834 26.9318C63.7703 26.9318 63.5975 27.1502 63.5975 27.4195C63.5975 27.6889 63.7703 27.9073 63.9834 27.9073Z" fill="#210601"/>
<path d="M58.5407 26.8909C58.3288 26.8909 58.1549 27.1112 58.1549 27.3787C58.1549 27.6461 58.3288 27.8664 58.5407 27.8664C58.7526 27.8664 58.9266 27.6461 58.9266 27.3787C58.9266 27.1112 58.7526 26.8909 58.5407 26.8909Z" fill="#210601"/>
<path d="M65.5298 26.9224C65.3179 26.271 64.7076 25.7959 63.9865 25.7959C63.1738 25.7959 62.5033 26.3938 62.38 27.171C62.0953 26.85 61.6842 26.6423 61.2225 26.6423C60.8019 26.6423 60.4256 26.8123 60.1441 27.0829C60.0049 26.3277 59.3408 25.755 58.5439 25.755C57.8197 25.755 57.2125 26.2301 57.0006 26.8815C54.2903 25.9249 53.6231 25.7991 53.4428 25.8337C53.389 25.8431 53.3448 25.9249 53.3353 25.969L53.4744 26.0256C53.4744 26.0256 53.4997 25.991 53.5029 25.991C53.7369 25.9627 55.4225 26.5102 56.95 27.0483C56.9279 27.1552 56.9152 27.2685 56.9152 27.3818C56.9152 28.2754 57.6457 29.0055 58.547 29.0055C59.1511 29.0055 59.6729 28.6751 59.9543 28.1873C60.0018 28.181 60.0524 28.1622 60.0935 28.1401C60.1409 28.1181 60.1852 28.0835 60.22 28.0457C60.2896 27.9702 60.3338 27.8727 60.3465 27.772C60.3813 27.5203 60.3244 27.3346 60.2516 27.2276C60.5015 26.9759 60.843 26.8186 61.2257 26.8186C61.6431 26.8186 62.0131 27.0074 62.2661 27.3C62.2029 27.4101 62.1586 27.5832 62.1902 27.8129C62.2029 27.9136 62.2471 28.0111 62.3167 28.0866C62.3515 28.1244 62.3958 28.1559 62.4432 28.181C62.4843 28.1999 62.5349 28.2219 62.5824 28.2282C62.8638 28.716 63.3856 29.0464 63.9897 29.0464C64.8878 29.0464 65.6215 28.3195 65.6215 27.4227C65.6215 27.3094 65.6089 27.1962 65.5867 27.0892C67.1363 26.5417 68.8188 25.9879 69.0117 26.0319C69.0054 26.0319 69.1856 25.9595 69.1856 25.9595C69.1319 25.8463 69.0591 25.6826 65.5361 26.9224H65.5298ZM58.5407 28.8324C57.7374 28.8324 57.0828 28.181 57.0828 27.3818C57.0828 26.5826 57.7374 25.9312 58.5407 25.9312C59.344 25.9312 59.9986 26.5826 59.9986 27.3818C59.9986 28.181 59.344 28.8324 58.5407 28.8324ZM60.1662 27.8507C60.1473 27.8853 60.1283 27.9199 60.0967 27.945C60.084 27.9545 60.0682 27.9608 60.0555 27.9702C60.122 27.8003 60.1599 27.6178 60.1662 27.429C60.182 27.4605 60.1947 27.4888 60.201 27.5234C60.2168 27.6272 60.201 27.7468 60.1662 27.8507ZM62.4274 27.986C62.3958 27.9576 62.3736 27.9262 62.3578 27.8916C62.3199 27.7909 62.3072 27.6681 62.323 27.5643C62.3294 27.5297 62.342 27.4982 62.3578 27.4699C62.3642 27.6619 62.4021 27.8444 62.4685 28.0111C62.4559 28.0017 62.4401 27.9954 62.4274 27.986ZM63.9834 28.8702C63.1801 28.8702 62.5254 28.2188 62.5254 27.4196C62.5254 26.6203 63.1801 25.969 63.9834 25.969C64.7866 25.969 65.4413 26.6203 65.4413 27.4196C65.4413 28.2188 64.7866 28.8702 63.9834 28.8702Z" fill="#302420"/>
<path d="M56.9721 25.1698C57.4117 24.8677 57.9146 24.7324 58.4522 24.811C58.6799 24.8457 58.8665 24.6317 58.8159 24.4083C58.7906 24.2981 58.7083 24.2037 58.6008 24.1691C57.8576 23.9394 57.1113 24.0621 56.5389 24.6506C56.463 24.7292 56.4377 24.8425 56.463 24.9495L56.4693 24.9715C56.5231 25.1949 56.7856 25.2988 56.9753 25.1698H56.9721Z" fill="#2A445D"/>
<path d="M49.8313 57.7372C49.8313 57.7372 49.4043 49.128 52.3265 48.011C52.9938 47.7561 53.6199 47.9103 54.0785 48.1494C55.6249 48.9613 56.0108 51.9065 56.1278 53.247C56.2827 54.9807 56.5199 57.5012 56.21 58.206C56.21 58.206 56.3175 54.2035 55.6439 51.2803C54.9703 48.3603 53.699 48.0393 52.8862 48.0834C52.0735 48.1274 51.1279 49.0336 50.6029 50.8052C50.0779 52.5767 49.8313 57.7372 49.8313 57.7372Z" fill="#1A2026"/>
<path d="M49.4106 58.3728C49.4106 58.3445 49.613 59.1343 50.391 59.3105C51.169 59.4899 51.5738 59.0714 51.5738 59.0714C51.5738 59.0714 51.52 59.5654 51.6022 59.6913C51.6022 59.6913 49.4802 59.9178 49.4106 58.3697V58.3728Z" fill="#1A2026"/>
<path d="M56.7254 57.7844C56.7254 57.7655 56.7571 58.1368 56.6021 58.4452C56.3301 58.9864 56.0866 59.0116 55.7988 59.1626C55.0936 59.5339 54.8469 59.0367 54.8469 59.0367C54.8469 59.0367 54.9418 59.5056 54.8944 59.644C54.8944 59.644 56.8836 59.5811 56.7286 57.7844H56.7254Z" fill="#1A2026"/>
<path d="M52.6649 42.9607L53.1139 42.8757L53.0855 43.1023L52.6649 43.1841V42.9607Z" fill="#1A2026"/>
<g opacity="0.1">
<path d="M53.4744 48.1275L53.563 42.7877L53.1139 42.8758L53.0253 48.1621C50.5934 48.5774 50.1064 52.8726 50.0241 58.354L50.0178 58.6592C50.0178 59.7794 50.6155 60.0563 51.3809 60.1758C51.6592 60.2199 51.9501 60.2356 52.2221 60.2451C52.2948 60.4056 52.4529 60.5188 52.6395 60.5188C52.8925 60.5188 53.0981 60.3143 53.0981 60.0626V59.6913C53.0981 59.4395 52.8925 59.235 52.6395 59.235C52.4087 59.235 52.2252 59.4081 52.1936 59.6283C51.5832 59.5969 50.8337 59.4679 50.5902 59.021C50.353 58.5837 50.4922 57.6554 50.5112 57.0292C50.6725 52.2369 51.1943 48.5963 53.4301 48.5963C55.666 48.5963 56.7065 52.2275 56.8678 57.0104C56.8867 57.6114 56.9943 58.4924 56.7666 58.9392C56.561 59.3451 56.0139 59.5245 55.4668 59.5969C55.4067 59.3829 55.2011 59.235 54.9703 59.2633C54.7173 59.2948 54.5402 59.5213 54.5686 59.7699L54.6129 60.1412C54.6445 60.393 54.8722 60.5692 55.1221 60.5409C55.3118 60.5188 55.4636 60.3804 55.5079 60.2073C56.3839 60.0877 57.3738 59.7007 57.3421 58.5585L57.3358 58.1085C57.3358 58.1085 57.339 58.0959 57.3421 58.0865C57.2346 52.4855 56.1341 48.1872 53.4681 48.1338L53.4744 48.1275Z" fill="#0E3368"/>
<path d="M75.2545 52.4446C74.8022 41.8626 69.8656 39.4585 69.6569 39.3578C69.6569 39.3578 69.9415 39.5844 71.1812 41.2867C72.4683 43.0614 74.4702 46.2584 74.7421 52.4541C73.6764 52.6019 72.8573 53.5113 72.8573 54.6095C72.8573 55.8146 73.8377 56.7901 75.0489 56.7901C76.2601 56.7901 77.2405 55.8146 77.2405 54.6095C77.2405 53.4767 76.3708 52.5453 75.2608 52.4415L75.2545 52.4446Z" fill="#0E3368"/>
<path d="M78.1039 76.7208L78.0153 82.586L61.621 83.2091L61.5957 85.2701L79.1348 84.5307V76.4659L78.1039 76.7208Z" fill="#0E3368"/>
</g>
</svg>
